<?xml version="1.0" encoding="UTF-8"?>
<svg version="1.1" viewBox="0 0 1440 1460" width="1280" height="1280" xmlns="http://www.w3.org/2000/svg">
<path transform="translate(552,146)" d="m0 0h45l327 2 17 2 14 5 14 9 11 10 10 14 7 15 2 4h355l31 1 1 1v702l-2 2-121 1h-111l-10-2-2-2-7 1-30 11-11 6-5 6-2 4v11l3 4v2l9 3h8l12-4 13-5 7-2h16l10 4 5 4 5 8 2 8v8l-4 13-6 10-7 9-9 10-12 12-14 11-18 12-17 9-22 8-20 5-18 2h-19l-12-1-1 73-2 14-5 13-6 11-9 11-9 8-13 8-16 6-19 2h-108l-166-1-103-1-14-3-12-5-11-7-12-11-8-10-7-14-4-14-1-8v-202l1-255 1-193 1-253 1-34 3-13 8-17 10-13 10-9 13-8 12-5 9-2z" fill="#F8F8F8"/>
<path transform="translate(998,207)" d="m0 0h356l31 1 1 1v702l-2 2-121 1h-111l-10-2-2-2-5-1 3-3 17-10 16-12 9-10 3-7v-10l-4-6-6-4-10-2-21-2-8-4-5-6v-8l5-6 13-10 14-12 6-6h2l2-4 10-11 11-16 6-14v-13l-6-12-8-7-10-4h-15l-11 4-10 6-9 8-11 15-14 27-12 21-9 11-8 7-5 1-6-3-1-2-1-15-3-9-6-5-5-2h-9l-8 4-5 4-6 10-3 11-1 89-4 13-5 5-3 2h-6l-1-1v-47l1-201 1-344v-102z" fill="#F9F8F8"/>
<path transform="translate(317,408)" d="m0 0 18 1 12 3 11 6 6 5 7 10 5 13 4 15 2 12 11 7 3 3v7l-1 8 5 4 6 3 6 7 1 9-2 6-35 1-7 1-7 8-9 4h-2l2 12v9h2l1-7 5-5 3 2-1 16 5-2 4-2 3 7 5-1 1-2 4 1 4 8 4 1v-13l2-11 2-2h4v27h3l3-29 2-6 5 2 2 4v29l2 1 1-27h5l3 4v9l-2 15-1 2h3l1-9 4-11 5 1-2 19-7 28v10l9 35 7 28 7 32 5 31v16l-3 6-8 7-11 4-6 1h-13l-9-3-7-7-8-16-7-21-4-16h-3l-8 16-1 9 7 31 9 38 5 31 4 42 2 34v76l-6 109-4 63-1 8-1 1-14 1-2 9-5 70-5 61-6 76-3 37v6l2 3 14 5 11 5 5 2 7 1h627l179-1-10-9-4-7-3-19-2-23v-13l3-9 7-2 12-1 2-3 2 3h12l3-1v2h17l9 2 3 4v46l-2 12-4 8-5 6-4 3 1 1 23 1h51l57 1v2h-1083l-1-2 12-1 3-1v-16l2-30 1-29 1-110-1-1-13 34-14 32-25 55-8 16-12 23-2 6 5 3v4l8 9 6 5 22 1-1 2h-18l1 5h-10l-8-5-16-7-31-15-12-5-1-4 10-23 11-34 15-48 23-74 13-41 5-18 2-9-18-1-2-6-13-98-12-90-3-31v-35l3-28 6-34 6-24 7-22 7-17 10-16 2-5-1-6-10-19-9-23-7-23-1-6-15-1-1-1v-8l1-7 1-26 5-32 5-13 6-9 8-9 14-9 14-6 19-5 20-3 1-5 1-22-13 1h-16l-8-3-3-5-6 1-6 2h-16l-15-4-2-2-1-16-1-10 3-10 4-4 10-4 3-4-1-13 4-6 9-3 14-2 7-3 6-9 7-14 8-9 10-6 13-3zm-10 1040v2h2v-2z" fill="#3B5A64"/>
<path transform="translate(552,146)" d="m0 0h45l327 2 17 2 14 5 14 9 11 10 10 14 7 15 3 14v102l-1 344-1 201v47h6l5-2 2-4 4-13 1-89 4-13 6-9 8-6 5-2h9l8 4 5 6 2 7 1 15 3 3 4 1 7-3 7-7 9-13 14-26 9-17 9-12 8-9 10-7 11-5 4-1h15l10 4 10 9 5 11v13l-7 16-12 16-10 11-13 13-11 9-14 11-2 3v8l5 6 7 3 28 3 8 4 5 6 1 2v10l-4 8-9 10-13 10-20 12-5 4-30 11-11 6-5 6-2 4v11l3 4v2l9 3h8l12-4 13-5 7-2h16l10 4 5 4 5 8 2 8v8l-4 13-6 10-7 9-9 10-12 12-14 11-18 12-17 9-22 8-20 5-18 2h-19l-12-1-1 73-2 14-5 13-6 11-9 11-9 8-13 8-16 6-19 2h-108l-166-1-103-1-14-3-12-5-11-7-12-11-8-10-7-14-4-14-1-8v-202l1-255 1-193 1-253 1-34 3-13 8-17 10-13 10-9 13-8 12-5 9-2zm-2 30-12 2-14 7-10 8-8 11-5 10-2 9-1 78-1 201-1 312-1 206v113l4 16 5 10 9 10 9 7 10 5 8 2 26 1 163 1h197l13-4 12-7 6-5 9-13 4-10 2-11 1-38 2-486 1-186v-198l-3-13-7-13-8-9-11-8-13-5-6-1h-85l-8 6-3 7-1 17-2 9-4 5-6 3h-142l-10-3-5-6-2-8-1-19-4-7-5-4-2-1-15-1z" fill="#1E3038"/>
<path transform="translate(718,475)" d="m0 0h11l12 5 8 7 5 5v2h2l1 4h2l4 6 1 3 3 1v3l3 1 4 7 7 9 2 1v3l3 1 1 4h2l8 11v2h2l4 6 1 3 3 1v3h2l1 4h2l2 4 3 3 3 4v2l3 1 1 3 3 2v3l4 2v3h2l1 4 3 1 6 9 4 4 1 3 2 1v3l3 1 1 4h2l5 8 2 1v3l4 2 7 10v2l3 1 1 3 2 1v3l4 2 1 3 2 1 4 7 1 3h2l5 11 1 3v17l-3 8-5 9-5 6-10 7-11 4-24 3-71 7-67 7-69 7h-8l-11-4-11-8-4-6v-2h-2l-5-11v-20l9-20 12-27 13-30h2l1-6 7-17 14-31 11-26 8-16 6-16 4-9 7-16 6-10 9-8 11-4z" fill="#FE5561"/>
<path transform="translate(317,408)" d="m0 0 18 1 12 3 11 6 6 5 7 10 5 13 4 15 2 12 11 7 3 3v7l-1 8 5 4 6 3 6 7 1 9-2 6-35 1-7 1-7 8-9 4h-2l2 12v9h2l1-7 5-5 3 2-1 16 5-2 4-2 3 7 2 2h-4l-1 10-7 20-7 24-9 36-8 27-7 19-11 25-8 15-8 11-8 10-11 9-10 4-4 1h-7l-12-4-11-8-4-2-2-3-8-16-10-23-8-25-2-10-15-1-1-1v-8l1-7 1-26 5-32 5-13 6-9 8-9 14-9 14-6 19-5 20-3 1-5 1-22-13 1h-16l-8-3-3-5-6 1-6 2h-16l-15-4-2-2-1-16-1-10 3-10 4-4 10-4 3-4-1-13 4-6 9-3 14-2 7-3 6-9 7-14 8-9 10-6 13-3z" fill="#FBBD9D"/>
<path transform="translate(997,677)" d="m0 0h1v234h6l5-2 2-4 4-13 1-89 4-13 6-9 8-6 5-2h9l8 4 5 6 2 7 1 15 3 3 4 1 7-3 7-7 9-13 14-26 9-17 9-12 8-9 10-7 11-5 4-1h15l10 4 10 9 5 11v13l-7 16-12 16-10 11-13 13-11 9-14 11-2 3v8l5 6 7 3 28 3 8 4 5 6 1 2v10l-4 8-9 10-13 10-20 12-5 4-30 11-11 6-5 6-2 4v11l3 4v2l9 3h8l12-4 13-5 7-2h16l10 4 5 4 5 8 2 8v8l-4 13-6 10-7 9-9 10-12 12-14 11-18 12-17 9-22 8-20 5-18 2h-19l-13-1-1-5v-26l1-135v-101z" fill="#3A5A64"/>
<path transform="translate(240,1176)" d="m0 0h129l-2 10-5 70-5 61-6 76-3 37v6l2 3 14 5 11 5 5 2 7 1h627l179-1-10-9-4-7-3-19-2-23v-13l3-9 7-2 12-1 2-3 2 3h12l3-1v2h17l9 2 3 4v46l-2 12-4 8-5 6-4 3 1 1 23 1h51l57 1v2h-1083l-1-2 12-1 3-1v-16l2-30 1-29 1-110-1-1-13 34-14 32-25 55-8 16-12 23-2 6 5 3v4l8 9 6 5 22 1-1 2h-18l1 5h-10l-8-5-16-7-31-15-12-5-1-4 10-23 11-34 15-48 23-74 13-41 5-18 2-9h-5zm67 272v2h2v-2z" fill="#FBBE9D"/>
<path transform="translate(573,831)" d="m0 0h49l15 1h287l7 3 4 6 1 6v75l-4 8-5 4-3 1-12 1h-347l-9-3-4-4-2-6v-79l3-6 6-5 2-1z" fill="#F9F8F8"/>
<path transform="translate(1182,1064)" d="m0 0h9l10 2 11 6 9 10 7 15 3 12 1 8 1 42 4 11 12 20 5 12 2 9-1 13-6 26 1 11 7 33 1 14-3 15-7 11-10 9-14 7-11 3h-17l-6 1-15-6-17-10-12-9-15-15-11-16-8-14-5-11-7-20-5-26v-10l1-2h2v-2l7 1 16 8 17 9 5 2 1-12 3-19 5-16 8-19 3-14v-14l-3-18-2-14v-12l3-12 5-10 7-6z" fill="#F9F9F9"/>
<path transform="translate(160,45)" d="m0 0h2v50l3 4v17l2 7-1 8 3 3 5 3 1 2 2 29-3 18-1 14 2 6 6 2h33l3-3 2-4v-23l4-51 3-46 2-15 2-3 5-1h85l14 1 1 1v11l-3 40v20l7 20 11 30 6 17 4 6 3 1h65l13 1 4 2 1 2v9l-5 5-19 1h-343l-10-1-3-3v-11l3-4 46-1 4-1 1-5v-50l2-12 5-6 4-4-6-13-8-17-3-7v-5h3l5 10v2h2l-4-11v-3h3l5 7 2 6h3l2-22 2-4 2 1 1 20 2-1 2-29 3-5h1l1 30h2l3-35 4-8zm86 29-8 1-3 49-2 16v35l1 14 2 3 24 3 20 2h16l5-3 1-6-4-9-4-1-1 1h-33l-9-1-2-1-1-4v-22l1-7 1-29 2-13 5-9 10-7 6-5 2-5zm-83 45 1 2zm-1 3m166 67-2 10 7 3 3-1-4-10z" fill="#F9F9F9"/>
<path transform="translate(317,408)" d="m0 0 18 1 12 3 11 6 6 5 7 10 5 13 4 15 2 12 11 7 3 3v7l-1 8 5 4 6 3 6 7 1 9-2 6-39 1-1-1 1-18v-31l-2-5-7-3-27-4 1-11-2-8v-5h-2l-3 9-8 12-8 7-11 7-17 7-9 1-3 3-1 2v7l2 5 13 2 1 3-1 29-2 1-10 1h-16l-8-3-3-5-6 1-6 2h-16l-15-4-2-2-1-16-1-10 3-10 4-4 10-4 3-4-1-13 4-6 9-3 14-2 7-3 6-9 7-14 8-9 10-6 13-3z" fill="#1F3139"/>
<path transform="translate(409,544)" d="m0 0 5 2 2 4v29l2 1 1-27h5l3 4v9l-2 15-1 2h3l1-9 4-11 5 1-2 19-7 28v10l9 35 7 28 7 32 5 31v16l-3 6-8 7-11 4-6 1h-13l-9-3-7-7-8-16-7-21-4-16-3-1 16-9h3l-2-16-11-59-6-34v-11l1-6v-11l3-3 4 1 4 8 4 1v-13l2-11 2-2h4v27h3l3-29z" fill="#FBBF9F"/>
<path transform="translate(267,567)" d="m0 0h21l4 16 4 7v2l4 2 12 7 1 2v9l-9 29-8 22-13 30-9 18h-3l-3-5-3-11-3-2-67-1-1-1v-8l1-7 1-26 5-32 5-13 6-9 8-9 14-9 14-6z" fill="#3B5A64"/>
<path transform="translate(600,443)" d="m0 0 9 1 1 3 4 2 4 10 22 88-2 10-8 8-5 2-11-1-41-13-37-12-12-6-5-6-1-2v-9l4-8 7-7 8-7 13-12 10-9 8-7 9-9 8-7 11-8z" fill="#FE5460"/>
<path transform="translate(1197,1365)" d="m0 0 3 3h12l3-1v2h17l9 2 3 4v46l-2 12-4 8-5 6-4 3 1 1 23 1h51l57 1v2h-982v-3h-2l1-2 9 2h627l179-1-10-9-4-7-3-19-2-23v-13l3-9 7-2 12-1z" fill="#F9F8F8"/>
<path transform="translate(862,457)" d="m0 0 6 1 11 7 15 14 8 7 12 11 13 11 5 8-1 7-6 7-15 6-36 11-22 6-10-1-5-6-1-3v-8l5-19 10-48 4-8z" fill="#FE5460"/>
<path transform="translate(573,831)" d="m0 0h49l15 1h287l7 3 4 6 1 6v75l-4 8-5 4-3 1-12 1h-347l-9-3-4-4-2-6v-79l3-6 6-5 2-1zm46 5-57 1-5 3-2 7v74l3 7 7 3h351l9-2 5-5 1-3v-74l-2-7-4-3-15-1z" fill="#FCAEA9"/>
<path transform="translate(729,545)" d="m0 0h15l5 5 1 2v52l-1 38-4 9-5 3h-9l-6-4-3-7-6-32-8-49v-9l4-4 12-3z" fill="#FBACA9"/>
<path transform="translate(723,491)" d="m0 0h7l9 3 9 7 11 12 9 12 10 13 13 17 11 14 13 17 8 10v2h2l10 14 8 10 10 13 9 11 2 5 5 4 11 15 4 8 2 9v9l-2 8-6 12-7 7-5 3h-4v2l-11 2-7 2-16 2-19 1-11 2-59 6-65 7-23 2h-14l-12-4-8-6-7-10-4-12v-8l4-18 11-25 9-20 22-50 7-15 7-16 16-36 8-17h3l-3 9-6 15-5 11-15 35-11 25-26 60-9 21-5 13-1 6v11l4 10 1 4h2l5 6 8 4 5 1h21l48-5 29-2 10-2 40-3 1-1 7-1h20v-2l35-3 6-2 11-4 8-7 6-11 1-3v-16l-5-12-8-11-2-5-5-6-5-4-12-16-12-15-14-19-11-14-14-18-15-20-13-17-10-13-11-12-5-4-4-2-8-1-16 2 1-3z" fill="#FBB49F"/>
<path transform="translate(600,443)" d="m0 0 9 1 1 2-9-1-7 3-3 3h-2l-2 4-9 9-1 5-7 8-4 4h-2l-2 4-11 9-5 5h-2v2l-8 7-4 2-2 5-2 3 1 7 5 5 11 5 35 11 30 10 4 1h9l6-5 1-8-7-32-8-33-6-21-3-5v-2h2v2l4 1 5 13 1 4 2-4 18 71 2 11-2 8-8 8-5 2-11-1-41-13-37-12-12-6-5-6-1-2v-9l4-8 7-7 8-7 13-12 10-9 8-7 9-9 8-7 11-8z" fill="#FB9D9B"/>
<path transform="translate(862,457)" d="m0 0 6 1 11 7 15 14 8 7 12 11 13 11 5 8-1 7-6 7-15 6-36 11-22 6-10-1-5-6-1-3v-8l5-19 10-48 4-8h3l-4 6-4 17h3l-1 12-4 18-4 20v8l3 3h9l25-7 35-11 6-5-1-7-9-9-10-8-11-10-8-7-7-6v-2l-3-1v-3l-5-2 1-3-5-2v-1l-5-1z" fill="#FBB6A3"/>
<path transform="translate(577,832)" d="m0 0h347l7 3 4 6v79l-1 2h-2v-72l-1-8h-2l-4-4-15-1-342-1-3-1v-2z" fill="#FE656E"/>
<path transform="translate(377,1450)" d="m0 0 10 2h796l1 3h-805v-3h-2z" fill="#F9F5F5"/>
<path transform="translate(379,468)" d="m0 0 2 2 2 4 10 6 3 3v7l-1 8 5 4 6 3 6 7 1 9-2 6-39 1-1-1 1-18v-31l-2-5-7-3v-1l7 1 8 1z" fill="#203239"/>
<path transform="translate(690,515)" d="m0 0h3l-3 9-6 15-5 11-15 35-11 25-26 60-9 21-5 13-1 6v11l4 10 1 4h2l5 6 8 4 5 1h21l48-5 33 1v1l-65 7-23 2h-14l-12-4-8-6-7-10-4-12v-8l4-18 11-25 9-20 22-50 7-15 7-16 16-36z" fill="#FBA4A2"/>
<path transform="translate(1041,787)" d="m0 0 2 4 3 20 6 53 2 13h2l5-10 9-14 13-19 8-12 3-2-2 5-16 23-8 15-10 18 30-7 15-3 40-7 24-4h5l-1 2-20 4-54 10-29 6-11 2-7 14-6 15-7 15-12 29-13 33-7 20-4 10-1 5-2 8v35l-1 11-2-2v-29l1-123 1-12h1v100h2l3-10 6-16 8-21 8-20 4-9 17-38 5-13-1-11-5-41-2-19-2-18z" fill="#2E4953"/>
<path transform="translate(737,671)" d="m0 0h9l7 3 6 7 3 7v7l-5 10-6 5-7 2h-7l-8-3-7-8-2-7 1-9 5-8 5-4z" fill="#FBACA8"/>
<path transform="translate(174,1411)" d="m0 0h7l20 9 22 12 3 2v4l8 9 6 5 22 1-1 2h-18l1 5h-10l-8-5-16-7-29-14v-9l-3-5-5-6z" fill="#FE5762"/>
<path transform="translate(297,1434)" d="m0 0h22l28 1 3 4 14 5 13 6v2h2v3h-69l-1-7-5-4-9-5 1-4z" fill="#FE5763"/>
<path transform="translate(144,264)" d="m0 0 23 1 15 4 16 8 11 8 5 4 11 14 6 10 6 15 2 10v29l-3 14-5 12-3 5-1 4-1-5 7-16 3-14v-28l-4-16-8-16-7-9-9-10-13-9-15-7-14-4h-31l-15 4-16 8-11 9-5 5-7 8-9 15-5 13-3 15v17l3 14 6 16 8 13 9 11 15 11 12 6 15 5 9 2h20l21-6 12-5h11l13 3v1l-10-1-11-1-21 8-15 4h-19l-15-3-16-6-16-10-7-6-7-8-9-14-5-10-5-16-1-6v-22l4-17 6-14 10-14 10-11 12-9 16-8 14-4z" fill="#F7F6F6"/>
<path transform="translate(145,308)" d="m0 0h18l2 1v12l-4 34-3 9-6 1-5-2-1-2-3-38v-11z" fill="#FE5A65"/>
<path transform="translate(475,214)" d="m0 0h1v350l-1 98-2 71h-1v-39l1-193 1-253z" fill="#958D91"/>
<path transform="translate(498,217)" d="m0 0 2 1-1 83-1 201-1 312h-1l-1-31v-126l1-251v-176z" fill="#35545E"/>
<path transform="translate(573,831)" d="m0 0h49v1l-57 1v2l54 1v1l-57 1-4 2-2 7v74l3 7 10 3 51 1-2 3-28 1h-25l-9-3-4-4-2-6v-79l3-6 6-5 2-1z" fill="#FBA19D"/>
<path transform="translate(334,707)" d="m0 0h2l-1 7-2 4-2 9-3 6 1 7v3l-4 1-2 5-6 12h-2l-1 4-5 8h-2v3h-2l-2 4-4 2v2l-10 5-5 1h-14l-13-3v-2l-5-2-3-4 10 3 6 2h12l3-1 1-2 10-5 10-9 11-15 8-14 11-24z" fill="#2E4A54"/>
<path transform="translate(613,463)" d="m0 0 2 1 3 13 3 6 3 16 1 1 3 14 4 15 3 15v10l-4 5-6 4-5 1-13-4-43-14-26-8-10-6v-2l6 2 10 2 8 3 40 13 22 7h9l6-5 1-8-7-32-8-33-2-6z" fill="#FBA7A4"/>
<path transform="translate(862,457)" d="m0 0 6 1 11 7 15 14 8 7 12 11 13 11 5 8v5l-2-3-3 5-9 8-9 3-4-1h2v-2l-6 2-4-1 21-7 4-4-1-7-9-9-10-8-11-10-8-7-7-6v-2l-3-1v-3l-5-2 1-3-5-2v-1l-5-1z" fill="#FB9C9B"/>
<path transform="translate(1041,787)" d="m0 0 2 4 3 20 6 53 2 13h2l5-10 9-14 13-19 8-12 3-2-2 5-16 23-8 15-10 18 30-7 15-3 40-7 24-4h5l-1 2-20 4-54 10-29 6-11 2-3 6-4 1 1-10-6-47-2-19-2-18zm8 104 2 2h-2z" fill="#2A444E"/>
<path transform="translate(591,471)" d="m0 0 8 1 6 2-1 9-9 19-6 12h-6l-2-3v-9l7-27z" fill="#FCAEAA"/>
<path transform="translate(79,302)" d="m0 0v3l-8 14-4 11-3 15v17l3 14 6 16 8 13 9 11 15 11 12 6 15 5 9 2h20l21-6 12-5h11l13 3v1l-10-1-11-1-21 8-15 4h-19l-15-3-16-6-16-10-7-6-7-8-9-14-5-10-5-16-1-6v-22l4-17 6-14 5-7z" fill="#E9E3E3"/>
<path transform="translate(871,719)" d="m0 0 1 3-6 4h-4v2l-11 2-7 2-16 2-19 1-11 2-47 5h-36v-1l28-3 2-1 40-3 1-1 7-1h20v-2l35-3 21-7z" fill="#FBB29E"/>
<path transform="translate(269,644)" d="m0 0 2 1 1 5 1 18 3 15 1 2 1 15-4 7h-3l-3-6-1-7-7-3v-2l3-1 1-7 1-19 2-15z" fill="#2E4953"/>
<path transform="translate(763,867)" d="m0 0h15l3 2v2h2l1 2v7l-3 5 1 6 2 1v3l-5-1-3-5-11-1v7h-4l-1-2v-20l2-5z" fill="#FB9D9C"/>
<path transform="translate(723,491)" d="m0 0h7l9 3 9 7 11 12 9 12 10 13 13 17 22 28-1 4-7-6-12-16-14-18-14-19-11-14-11-12-5-4-4-2-8-1-16 2 1-3z" fill="#FBB8A7"/>
<path transform="translate(606,451)" d="m0 0h2v2l4 1 5 13 1 4 2-4 18 71 2 11-2 8-8 8-5 2h-6v-2l-7-1-1-2 11 1 6-3 6-6v-10l-3-15-6-22-1-7-3-9-1-8-4-8-2-11-2 4-4-12z" fill="#FB9999"/>
<path transform="translate(475,490)" d="m0 0h1v74l-1 98-2 71h-1v-39l1-193 1-10z" fill="#6D7379"/>
<path transform="translate(526,513)" d="m0 0 2 1v9l4 6 6 3-4 1-6-3 4 4 12 5 39 12 27 9 4 2-2 1 7 2v1l-8-1-38-12-37-12-12-6-4-4 1-2 4 3-3-5v-10h2z" fill="#FB9E9C"/>
<path transform="translate(335,882)" d="m0 0 1 4-5 16-12 35-13 34-6 17-11 28-12 30-4 8-1-3 5-14 5-12 7-19 10-26 8-21 6-17 6-15 5-15 5-16 3-9z" fill="#2E4953"/>
<path transform="translate(930,842)" d="m0 0 2 2 1 6v67l-1 5h2l1-75h1v75l-4 8-5 4-3 1h-41v-1l-5-1v-1h38v-2l9-2 4-4 1-3z" fill="#FBA59E"/>
<path transform="translate(377,1450)" d="m0 0 10 2 298 1v1l-193 1h-113v-3h-2z" fill="#F9F9F9"/>
<path transform="translate(706,741)" d="m0 0 33 1v1l-65 7-23 2h-14l-2-2 1-1-2-2 24-1z" fill="#FBAAA4"/>
<path transform="translate(528,530)" d="m0 0 6 2 10 2 8 3 40 13 22 7 7 2v3h-7l-28-9-32-10-18-6-8-5z" fill="#FBACA8"/>
<path transform="translate(904,489)" d="m0 0 4 2 7 7 11 9 6 9v5l-2-3-3 5-9 8-9 3-4-1h2v-2l-6 2-4-1 21-7 4-4-1-7-9-9-3-2 1-5-4 1-1-6z" fill="#FBAFAB"/>
<path transform="translate(149,376)" d="m0 0h9l5 3 2 4-1 9-5 4-2 1h-6l-6-4-2-4 1-8z" fill="#FE626C"/>
<path transform="translate(690,515)" d="m0 0h3l-3 9-6 15-5 11-15 35-7 16-3-1-2 1 2-6 10-23 7-15 11-25z" fill="#FBA3A1"/>
<path transform="translate(867,479)" d="m0 0h6l2 2 4 18 1 10-2 3h-5l-2-2-5-14-3-8v-6z" fill="#FBA8A5"/>
<path transform="translate(305,597)" d="m0 0 6 1 4 5v7l-8 28-13 35-16 35-4 6-5-2-3-7-3-8-2-2-6-1-43-1v-1h50l4 3 4 13 1 3h3l2-5 15-33 10-26 10-31 1-4v-11l-5-2z" fill="#FBAAA7"/>
<path transform="translate(689,867)" d="m0 0 4 1v2h2l5 11 5 12v2l-4-1-1-5h-2l-2-2-12 1-5 7h-3l2-6 8-16z" fill="#FD7E81"/>
<path transform="translate(866,653)" d="m0 0 5 5 9 12 4 8 2 9v9l-2 8-6 12-6 5h-3l-4 1 5-5 6-8 4-9v-16l-5-12-8-11 1-3z" fill="#FBB19F"/>
<path transform="translate(1167,730)" d="m0 0h2l-2 4-8 8-7 8-15 16-8 10-14 18-11 15-3 4h-2l-1 4-3 3-1-2 3-6 4-4 3-6h2l1-4 13-16 9-12 4-5 5-5 7-8 5-5z" fill="#2D4852"/>
<path transform="translate(654,599)" d="m0 0 2 1-1 5-11 26-11 25-4 2-1 3-3 1 3-9 6-13 11-25 6-14z" fill="#FBA6A4"/>
<path transform="translate(294,1433)" d="m0 0h32l11 1v1h-40l-1 4 11 6 3 3v6l-3 1h-29l-1-2 12-1 3-1v-16zm13 15v2h2v-2z" fill="#FA9B9C"/>
<path transform="translate(1167,860)" d="m0 0h5l-1 2-20 4-54 10-29 6h-6l1-2 25-6 15-3 40-7z" fill="#2E4953"/>
<path transform="translate(856,459)" d="m0 0 2 1-4 6-4 17h3l-1 12-4 18-4 20-1 8h-3v-13l3-12v-9l8-39 4-8z" fill="#FBA6A2"/>
<path transform="translate(735,867)" d="m0 0h18v4h-14l-1 1-1 8h13v4h-12v7h15v4l-3 1h-11l-5-3-1-3v-20z" fill="#FD7176"/>
<path transform="translate(357,721)" d="m0 0 5 2v7l-4 9v3l-4 1h-10l-1-2 1-7-2-7v-2l4-1 1 5 8-3z" fill="#2E4953"/>
<path transform="translate(1144,982)" d="m0 0 2 2-24 8-20 7-16 6-20 7-13 4-7 2-6 2h-5l3-2 25-9 26-9 16-5 20-7z" fill="#2E4953"/>
<path transform="translate(591,471)" d="m0 0 8 1 6 2-1 9-9 19-6 12h-6l-2-3v-9l7-27zm1 3-3 7-3 9v7l-3 9 1 5 4 1 5-8 4-9v-4h2l3-8-1-6-3 1-1-2z" fill="#FB999A"/>
<path transform="translate(785,734)" d="m0 0 3 1h-2v2l-7 2-28 3h-36v-1l28-3 2-1z" fill="#FBB0A5"/>
<path transform="translate(929,515)" d="m0 0 2 3-1 7-7 6-19 7-41 12h-7l3-3 16-4h4v-2l14-3 25-8 10-9z" fill="#FB9898"/>
<path transform="translate(303,1255)" d="m0 0 3 1-1 10-1 6h-2v9l-2 5-2 16-1 37h-1v-66h2l1-5 1-1 2-11z" fill="#FBA3A0"/>
<path transform="translate(576,520)" d="m0 0 8 1 3 3v7l-3 5h-8l-4-4v-7l2-4z" fill="#FBACA3"/>
<path transform="translate(609,719)" d="m0 0 3 2 4 10 1 4h2l5 6 8 4 5 1v3l-4 2-10-4-8-7-6-10-1-9z" fill="#FBAE9C"/>
<path transform="translate(765,871)" d="m0 0h12l3 3-1 7-3 3h-12v-12z" fill="#F9F8F8"/>
<path transform="translate(1052,890)" d="m0 0 1 2-9 21-7 15-9 22-3 1v-5l4-9 17-38 3-6z" fill="#2D4852"/>
<path transform="translate(79,302)" d="m0 0v3l-8 14-4 11-3 15v17l1 10h-2l-2-8v-22l4-17 6-14 5-7z" fill="#F9F7F7"/>
<path transform="translate(419,553)" d="m0 0h5l3 4v9l-2 15-2-1-1-6-3 6h-1z" fill="#F9F3F1"/>
<path transform="translate(802,866)" d="m0 0 6 1v3l-7 1-1 7v16l-5 1v-24l-9-1v-3z" fill="#FD8183"/>
<path transform="translate(194,429)" d="m0 0h11l13 3v1l-10-1-11-1-21 8-15 4h-19l-15-3 1-3 13 3h20l21-6z" fill="#F9F9F9"/>
<path transform="translate(133,265)" d="m0 0 9 1v1l-16 3-15 6-11 7-11 9-8 10-4 2 2-5 12-13 12-9 16-8z" fill="#E9D2D0"/>
<path transform="translate(144,264)" d="m0 0 23 1 15 4 16 8 5 3v3l-5-2-15-8-17-5-24-1-6-1v-1z" fill="#F1E0DF"/>
<path transform="translate(305,597)" d="m0 0 6 1 4 5v7l-8 28-13 35-4 9h-1l1-7 11-28 10-31 1-4v-11l-5-2z" fill="#FBA6A4"/>
<path transform="translate(409,544)" d="m0 0 5 2 2 4v19l-1 10h-1l-1-29-2-1-3 22-3 8-1-2 3-25 1-7z" fill="#F6F5F5"/>
<path transform="translate(710,867)" d="m0 0 4 1v20l1 3 13 1-1 3h-16l-1-1-1-12v-14z" fill="#FE656E"/>
<path transform="translate(689,867)" d="m0 0 4 1v2h2l5 11 5 12v2l-4-1-1-5h-2l-2-2h-9v-2l9-2-4-8v-4l-3 1-1 3-3 1 2-5z" fill="#FE6A70"/>
<path transform="translate(706,741)" d="m0 0 33 1v1l-28 3h-26l3-1v-2z" fill="#FAC1BC"/>
<path transform="translate(690,515)" d="m0 0h3l-3 9-6 15-5 11-4 9h-2l2-7-1-2 9-20z" fill="#FB9899"/>
<path transform="translate(883,687)" d="m0 0 2 1v14l-7 14-6 5h-3l-4 1 5-5 6-8 4-9z" fill="#FBC0AD"/>
<path transform="translate(171,1413)" d="m0 0 4 4 5 6 1 5-2 2-5 1-8-4 1-5z" fill="#FBB4AF"/>
<path transform="translate(432,563)" d="m0 0 5 1-2 19-2 7-2-1-1-7-2-1-1 2 1-9z" fill="#F9F4F3"/>
<path transform="translate(856,459)" d="m0 0 2 1-4 6-4 17h3l-1 12-2 7-4-1-1 9h-1v-8l7-34 4-8z" fill="#FB9696"/>
<path transform="translate(1107,870)" d="m0 0h10v1l-15 4-34 7h-6l1-2 25-6 15-3z" fill="#2C4751"/>
<path transform="translate(723,491)" d="m0 0h7l9 3 9 7 2 3-3 2-7-7-6-3-8-1-16 2 1-3z" fill="#FBA8A5"/>
<path transform="translate(293,1441)" d="m0 0 4 1 5 5-2 6 7 1v1h-29l-1-2 12-1 3-1z" fill="#FBB5B1"/>
<path transform="translate(842,511)" d="m0 0h2l-1 10-3 10v12l2 4 5 2 7 1-2 1v2l-10-1-5-6-1-3v-8l5-19z" fill="#FD6E74"/>
<path transform="translate(606,451)" d="m0 0h2v2l4 1 5 13 1 4 2-4 3 12v9l-2-1-4-10-3-13-2 4-4-12z" fill="#FC8D8F"/>
<path transform="translate(636,545)" d="m0 0 2 2 1 8-7 8-4 3-9 1v-2l-7-1-1-2 11 1 6-3 5-5 2-3z" fill="#FE606A"/>
<path transform="translate(936,666)" d="m0 0h2l8 19 1 4v25l-5 16-2 5-1-3 4-12 1-5v-26l-7-20z" fill="#385761"/>
<path transform="translate(236,1449)" d="m0 0 4 3 22 1-1 2h-18l1 5h-10l-2-4 3-1z" fill="#FABBBA"/>
<path transform="translate(839,531)" d="m0 0h1v10h4l3 3h13l-2 2 1 2-2 1 2 2-7 1v-1l-10-3-3-5z" fill="#FBA6A4"/>
<path transform="translate(379,468)" d="m0 0 2 4-2 5h-4v17l-1 15h-1l-1-31-2-5-7-3v-1l7 1 8 1z" fill="#395862"/>
<path transform="translate(845,630)" d="m0 0 5 1 11 14 3 6 5 7-2 1-7-9-5-4-10-14z" fill="#FBB8A4"/>
<path transform="translate(749,504)" d="m0 0 4 2 12 15 6 9h-2l-1 2-14-18-6-7z" fill="#FBB2A0"/>
<path transform="translate(546,706)" d="m0 0h1v36l4 13 4 9-1 2-7-14-3-10v-29z" fill="#AE8C8E"/>
<path transform="translate(877,519)" d="m0 0h6l4 4-1 5-5 3-4-2-2-2v-6z" fill="#FBACA3"/>
<path transform="translate(871,719)" d="m0 0 1 3-6 4h-4v2l-11 2h-20v-1l17-2 21-7z" fill="#FBBEAF"/>
<path transform="translate(763,867)" d="m0 0h15v1h-5v2l4 1-12 1-1 11-2-3-1 13h-1v-20l2-5z" fill="#FC8F8F"/>
<path transform="translate(351,468)" d="m0 0 12 1 8 4 1 5-1-2h-3l-1 7h-3l-1-8h-4l1-4-9-2z" fill="#FBABA8"/>
<path transform="translate(735,867)" d="m0 0h18v4h-14l-1 1-1 7-1-4h-2v5h-1v-10z" fill="#FC9493"/>
<path transform="translate(385,688)" d="m0 0 2 1 1 8-3 9 1 5h-2v3l-5-1 1-8 3-6z" fill="#2E4953"/>
<path transform="translate(383,524)" d="m0 0h29l-1 3-37 1 1-2z" fill="#3B555E"/>
<path transform="translate(882,538)" d="m0 0 2 1v2h-5v2l-15 4h-6l-1-2h3v-2l14-4h7z" fill="#FBBAA7"/>
<path transform="translate(923,518)" d="m0 0 1 4-2 3v3l-6 4-7 2-4-1h2v-2l-6 2-4-1 21-7 4-4z" fill="#FBA8A5"/>
<path transform="translate(90,417)" d="m0 0 4 2 13 9 10 5 10 4v2l-6-1-11-5-12-7-8-7z" fill="#F0E7E7"/>
<path transform="translate(361,568)" d="m0 0h7l-1 9-2 2-2 5h-3v-11z" fill="#DA9F9D"/>
<path transform="translate(654,599)" d="m0 0 2 1-1 5-6 14-2 1v-2l-3 1 3-9 4-9z" fill="#FBA8A5"/>
<path transform="translate(689,871)" d="m0 0h3l4 10v2l-2 1h-9l1-5h2v-7z" fill="#F9F1F0"/>
<path transform="translate(634,747)" d="m0 0h18v2l10 1v1l-11 1h-14l-2-2 1-1z" fill="#FBA6A4"/>
<path transform="translate(361,550)" d="m0 0 3 2-1 16-3-3-1-3 1-2-4-2v5l-3-1h2l1-7z" fill="#F9F5F5"/>
<path transform="translate(568,748)" d="m0 0 3 4 7 13 5 5 9 10-2 1-8-7-3-3-4-7-5-8-2-4z" fill="#A4888A"/>
<path transform="translate(79,302)" d="m0 0v3l-8 14-4 11h-3l3-10 7-14z" fill="#F2EBEB"/>
<path transform="translate(809,584)" d="m0 0 3 2h3l8 10 3 7-5-2-12-15z" fill="#FBB7A4"/>
<path transform="translate(194,429)" d="m0 0h11l13 3v1l-10-1-11-1-21 8h-5l2-2 19-7z" fill="#F9F9F9"/>
<path transform="translate(793,732)" d="m0 0h8l4 2 1 2-16 2h-10v-1h6v-4z" fill="#FBACA5"/>
<path transform="translate(270,688)" d="m0 0h2l1 7 1 8 1 2-1 2h-3l-2-5-1-9-1-2z" fill="#1C2E36"/>
<path transform="translate(397,552)" d="m0 0h4v27l-2-4v-16l1-2h-2l-4 5 1-8z" fill="#F9F4F2"/>
<path transform="translate(773,868)" d="m0 0h7l1 3h2l1 2v7l-4 4h-2l1-10v-2h-2v-2h-4z" fill="#FD7177"/>
<path transform="translate(761,879)" d="m0 0 2 1 2 4 10 1v2l-10 1v7h-4z" fill="#FE606A"/>
<path transform="translate(522,512)" d="m0 0h1v15l3 5-1 2-6-5-1-2v-9l2-5z" fill="#FE6D73"/>
<path transform="translate(378,572)" d="m0 0h2l2 9-2 8v21h-1l-2-11v-11l1-6z" fill="#FBABA8"/>
<path transform="translate(631,657)" d="m0 0 1 2-7 16-4-4 3-9 4-2z" fill="#FBA1A0"/>
<path transform="translate(743,738)" d="m0 0h9v1l-6 1v1l-6 1h-25v-1z" fill="#F9F9F9"/>
<path transform="translate(353,567)" d="m0 0 3 1-2 12-2 4h-3v-7z" fill="#FBA9A6"/>
<path transform="translate(916,501)" d="m0 0 4 1 7 6 5 8v5l-2-3-2 3-4-11-6-5z" fill="#FBA19D"/>
<path transform="translate(877,707)" d="m0 0h2l1 6-7 8-2-1-6 2 5-5 6-8z" fill="#FBA7A4"/>
<path transform="translate(364,1445)" d="m0 0 6 2 7 3v2h2v3h-13l3-1-1-4 1-1-5-3z" fill="#FBA5A4"/>
<path transform="translate(710,867)" d="m0 0 4 1v22l-2-1-1-8-2 1v-14z" fill="#FC9691"/>
<path transform="translate(387,577)" d="m0 0 5 2v7l-1 3-5 1v-11z" fill="#C79696"/>
<path transform="translate(173,1409)" d="m0 0 8 1v1l-7 1 2 4 5 6 1 3v7l-3 1-3-1-1-3 5-1-2-6-6-7v-5z" fill="#FB9B9C"/>
<path transform="translate(785,734)" d="m0 0 3 1h-2v2l-6 1h-27v-1z" fill="#F9F6F4"/>
<path transform="translate(734,875)" d="m0 0h2l1 4 13 1v4h-11l-4-2z" fill="#FD6E75"/>
<path transform="translate(836,617)" d="m0 0 4 1 9 12-4 1-5-5-4-5z" fill="#FBB39E"/>
<path transform="translate(287,430)" d="m0 0 1 2-5 22v2h-2v-10l2-9 2-6z" fill="#2E4953"/>
<path transform="translate(562,716)" d="m0 0h1l3 15 2 17-2-2-4-17-1-11z" fill="#BD9293"/>
<path transform="translate(95,283)" d="m0 0 2 1-5 6-5 5-6 7-4 2 2-5 12-13z" fill="#8F8B8F"/>
<path transform="translate(997,864)" d="m0 0h1l1 45 4 1 4-1-3 3h-6l-1-1z" fill="#FCAEAA"/>
<path transform="translate(929,515)" d="m0 0 2 3-1 7-7 6-7 1 5-4 7-7z" fill="#FD6F75"/>
<path transform="translate(606,451)" d="m0 0h2v2l4 1 5 13-1 4-2-7-2 4-4-12z" fill="#FB999A"/>
<path transform="translate(813,731)" d="m0 0h9v2l-13 2-15-1v-1z" fill="#F9F6F6"/>
<path transform="translate(875,543)" d="m0 0h5l-3 3-14 4h-7l3-3z" fill="#FC888B"/>
<path transform="translate(203,281)" d="m0 0 8 6 5 5 6 7-3 1-12-13-4-3z" fill="#F9F9F9"/>
<path transform="translate(300,650)" d="m0 0 1 4-9 24-3 4 1-7z" fill="#FBA7A5"/>
<path transform="translate(769,530)" d="m0 0 4 1 7 10-1 3-4-2-6-9z" fill="#FBB6A4"/>
<path transform="translate(734,493)" d="m0 0 5 1 9 7 2 3-3 2-7-7-5-3z" fill="#FBA8A6"/>
<path transform="translate(144,264)" d="m0 0h9l10 1v2h-21l-6-1v-1z" fill="#F9F3F3"/>
<path transform="translate(379,468)" d="m0 0 2 4-2 5h-4v17h-1l-1-23h5z" fill="#324C56"/>
<path transform="translate(603,557)" d="m0 0h11l7 2v3h-7l-10-3z" fill="#FBB6A1"/>
<path transform="translate(1106,801)" d="m0 0 1 4-6 8h-2l-1 4-3 3-1-2 3-6 4-4 3-6z" fill="#263D46"/>
<path transform="translate(1179,712)" d="m0 0 5 1 10 9 4 8-1 4v-3l-4-1v-7h-2v-2l-4-2-4-4z" fill="#2E4952"/>
<path transform="translate(623,483)" d="m0 0 2 3 3 13-1 3-2-5-2 2-2-8 1-6z" fill="#FBA09E"/>
<path transform="translate(877,519)" d="m0 0h6l4 4-1 4-2-5-2-1 1 5h-3l-4-4v5h-1v-6z" fill="#FBA0A0"/>
<path transform="translate(292,1451)" d="m0 0 1 3h14v1h-29l-1-2 12-1z" fill="#F9E9E8"/>
<path transform="translate(855,726)" d="m0 0 4 2-8 2h-20v-1z" fill="#F9F9F9"/>
<path transform="translate(622,674)" d="m0 0 2 1-1 5-6 13-3-3 3-4 2-6z" fill="#FB999A"/>
<path transform="translate(372,571)" d="m0 0 5 1-4 1-1 10-5 14-1-3z" fill="#FCAEAA"/>
<path transform="translate(308,758)" d="m0 0v3l-6 8-5 5-3 1v2l-6 2 5-5 8-7z" fill="#3A5A64"/>
<path transform="translate(334,707)" d="m0 0h2l-1 7-8 14-2 2 1-5z" fill="#34525C"/>
<path transform="translate(905,531)" d="m0 0h2v2h-2v2l-8 3-4-1 1-4z" fill="#FBBCA5"/>
<path transform="translate(842,524)" d="m0 0h1v17h-3v-13z" fill="#FAD8D4"/>
<path transform="translate(327,472)" d="m0 0 6 1 2 5-1 4-4 1-1-3h3v-4l-3 1-3-4z" fill="#36555E"/>
<path transform="translate(813,730)" d="m0 0h14l7 2v1l-6 1h-10l4-1v-2h-9z" fill="#FBAEA7"/>
<path transform="translate(936,666)" d="m0 0h2l8 19v6l-2-2-7-20z" fill="#34525C"/>
<path transform="translate(829,609)" d="m0 0 5 2 4 5v3l-3 1-6-8z" fill="#FAC6B9"/>
<path transform="translate(63,372)" d="m0 0 3 1 5 14v3h-2l-6-16z" fill="#ECD6D5"/>
<path transform="translate(652,747)" d="m0 0h12v3h-12l-5-1v-1z" fill="#FCBA9F"/>
<path transform="translate(756,738)" d="m0 0h23v1l-18 2h-5z" fill="#FBA9A4"/>
<path transform="translate(609,719)" d="m0 0 3 2 1 9h-4l-1-9z" fill="#FBB19E"/>
<path transform="translate(181,1453)" d="m0 0h38v1h-38z" fill="#F9F9F9"/>
<path transform="translate(224,584)" d="m0 0 2 1-15 15v-3l9-10z" fill="#B3A6A9"/>
<path transform="translate(362,472)" d="m0 0 4 1 2 8-1 2h-3l-1-8-2-1z" fill="#324F59"/>
<path transform="translate(64,330)" d="m0 0h2l-1 10-1 5-3-1 2-12z" fill="#F9EDEC"/>
<path transform="translate(163,265)" d="m0 0 8 1 9 3-1 2-16-4z" fill="#E5D6D6"/>
<path transform="translate(763,867)" d="m0 0h15v1h-5v2l4 1h-12l3-1v-2h-5z" fill="#FBA9A2"/>
<path transform="translate(267,701)" d="m0 0 3 1 1 5h3v-2l3-1-2 5-1 2h-3l-3-5z" fill="#37555F"/>
<path transform="translate(408,524)" d="m0 0h4l-1 3h-25v-1l18-1z" fill="#B79091"/>
<path transform="translate(220,300)" d="m0 0h3l7 11-1 4-9-14z" fill="#EADBDB"/>
<path transform="translate(665,573)" d="m0 0 2 2-1 2v4l-3 1-1 3h-2l1-6z" fill="#FBA8A5"/>
<path transform="translate(717,492)" d="m0 0 9 2v1l-16 2 1-3z" fill="#FB999A"/>
<path transform="translate(734,880)" d="m0 0 1 2h3v9l-2-1-1-1-1 4-1-3v-8z" fill="#FBA59F"/>
<path transform="translate(305,597)" d="m0 0 6 1 4 5v7l-2 4-1-13-5-2z" fill="#FBA4A2"/>
<path transform="translate(817,593)" d="m0 0 5 2 4 8-5-2-4-5z" fill="#F9E8E5"/>
<path transform="translate(912,532)" d="m0 0h6l-2 2-9 3h-6l1-2z" fill="#FC8D8F"/>
<path transform="translate(187,432)" d="m0 0h2v2l-13 5h-5l2-2z" fill="#F9ECEB"/>
<path transform="translate(777,886)" d="m0 0h2l3 5 2 1v3l-5-1-2-3z" fill="#FD7077"/>
<path transform="translate(848,497)" d="m0 0h1v10l-1 6-3-3 1-9h2z" fill="#FBA4A2"/>
<path transform="translate(600,443)" d="m0 0 9 1 1 2-9-1-7 3-3 3-3-1 8-6z" fill="#FBA5A0"/>
<path transform="translate(839,531)" d="m0 0h1v10h3l1 4 2 2h-5l-2-4z" fill="#FBB4A4"/>
<path transform="translate(882,538)" d="m0 0 2 1v2h-5v2h-7l2-4h7z" fill="#FADCD2"/>
<path transform="translate(338,455)" d="m0 0h1v7l4 3 5 1v1h-7l-5-1z" fill="#34525C"/>
<path transform="translate(113,432)" d="m0 0 9 3 5 2v2l-6-1-7-3z" fill="#E1D7D7"/>
<path transform="translate(377,1450)" d="m0 0 12 3-1 2h-9v-3h-2z" fill="#F9EAE9"/>
<path transform="translate(267,706)" d="m0 0h2l2 5 6-2-3 5-5-2-2-3z" fill="#FBA7A4"/>
<path transform="translate(857,645)" d="m0 0 4 2 8 11-2 1-7-9-2-1z" fill="#F9F6F6"/>
<path transform="translate(733,870)" d="m0 0h6l-2 9-1-4h-2v5h-1z" fill="#FBA6A1"/>
<path transform="translate(555,764)" d="m0 0 4 5 3 4-1 3-7-8z" fill="#E8A5A3"/>
<path transform="translate(230,313)" d="m0 0 3 4 3 10-3-1-4-11z" fill="#F9ECEB"/>
<path transform="translate(638,638)" d="m0 0 2 2-5 12-2-3 3-8z" fill="#FB9B9B"/>
<path transform="translate(886,540)" d="m0 0 5 1-3 2-9 2v-4z" fill="#FBA49F"/>
<path transform="translate(228,402)" d="m0 0 4 4 6 11-1 2-9-15z" fill="#F9F6F6"/>
<path transform="translate(622,670)" d="m0 0 2 3-2 4-4 4 2-10z" fill="#FBABA7"/>
<path transform="translate(629,654)" d="m0 0h3l-1 4h-2l-1 3-3 1 2-7z" fill="#FBAAA7"/>
<path transform="translate(576,520)" d="m0 0h5l-3 2-2 1-3 9h-1v-7l2-4z" fill="#FB9F9E"/>
<path transform="translate(929,515)" d="m0 0 2 3v3h-2zm-1 6m-1 1m-1 1m-1 1m-1 1m-1 1m-1 1m-1 1m-2 1h2v3h-5z" fill="#FE5964"/>
<path transform="translate(351,468)" d="m0 0 12 1v3l-2 3h-2l1-4-9-2z" fill="#FBA3A0"/>
<path transform="translate(613,463)" d="m0 0 2 1 1 4v7l-3-2z" fill="#FBAAA7"/>
<path transform="translate(79,302)" d="m0 0v3l-4 7-3-1 3-6z" fill="#F3D4D3"/>
<path transform="translate(599,553)" d="m0 0 11 3v1l-9 1-3-2z" fill="#FBA7A5"/>
<path transform="translate(843,507)" d="m0 0 1 3 3-1v6l-2 5h-1z" fill="#FAC1BE"/>
<path transform="translate(337,455)" d="m0 0 1 4-1 8-5 1 1-4 2-1z" fill="#ED9193"/>
<path transform="translate(103,277)" d="m0 0h2l-2 4-5 4-2-1 1-3z" fill="#F9EAE9"/>
<path transform="translate(329,191)" d="m0 0h2l1 8h-2l-2-5z" fill="#F9F9F9"/>
<path transform="translate(233,1437)" d="m0 0h2v2h-2z" fill="#F9F9F9"/>
<path transform="translate(222,434)" d="m0 0 4 1z" fill="#F9F9F9"/>
<path transform="translate(218,433)" d="m0 0 4 1z" fill="#F9F9F9"/>
<path transform="translate(231,436)" d="m0 0 3 1z" fill="#F9F9F9"/>
<path transform="translate(227,435)" d="m0 0 3 1z" fill="#F9F9F9"/>
<path transform="translate(242,426)" d="m0 0" fill="#F9F9F9"/>
<path transform="translate(241,424)" d="m0 0" fill="#F9F9F9"/>
<path transform="translate(240,422)" d="m0 0" fill="#F9F9F9"/>
<path transform="translate(238,419)" d="m0 0" fill="#F9F9F9"/>
<path transform="translate(236,437)" d="m0 0" fill="#F9F9F9"/>
<path transform="translate(245,432)" d="m0 0" fill="#F9F9F9"/>
<path transform="translate(244,430)" d="m0 0" fill="#F9F9F9"/>
<path transform="translate(243,428)" d="m0 0" fill="#F9F9F9"/>
<path transform="translate(239,421)" d="m0 0" fill="#F9F9F9"/>
</svg>
