<svg width="19" height="19" viewBox="0 0 19 19" fill="none" xmlns="http://www.w3.org/2000/svg">
<path fill-rule="evenodd" clip-rule="evenodd" d="M3.875 3.875V15.125C3.875 16.3676 4.88236 17.375 6.125 17.375H15.125C16.3676 17.375 17.375 16.3676 17.375 15.125V3.875C17.375 2.63236 16.3676 1.625 15.125 1.625H6.125C4.88236 1.625 3.875 2.63236 3.875 3.875Z" stroke="black" stroke-width="1.5" stroke-linecap="round" stroke-linejoin="round"/>
<path fill-rule="evenodd" clip-rule="evenodd" d="M12.875 7.25C12.875 8.49264 11.8676 9.5 10.625 9.5C9.38236 9.5 8.375 8.49264 8.375 7.25C8.375 6.00736 9.38236 5 10.625 5C11.8676 5 12.875 6.00736 12.875 7.25Z" stroke="black" stroke-width="1.5" stroke-linecap="round" stroke-linejoin="round"/>
<path d="M3.42608 14.5242C3.09426 14.7721 3.02626 15.2421 3.27419 15.5739C3.52213 15.9057 3.99211 15.9737 4.32392 15.7258L3.42608 14.5242ZM16.9261 15.7258C17.2579 15.9737 17.7279 15.9057 17.9758 15.5739C18.2237 15.2421 18.1557 14.7721 17.8239 14.5242L16.9261 15.7258ZM1.625 5.375C1.21079 5.375 0.875 5.71079 0.875 6.125C0.875 6.53921 1.21079 6.875 1.625 6.875V5.375ZM3.875 6.875C4.28921 6.875 4.625 6.53921 4.625 6.125C4.625 5.71079 4.28921 5.375 3.875 5.375V6.875ZM1.625 8.75C1.21079 8.75 0.875 9.08579 0.875 9.5C0.875 9.91421 1.21079 10.25 1.625 10.25V8.75ZM3.875 10.25C4.28921 10.25 4.625 9.91421 4.625 9.5C4.625 9.08579 4.28921 8.75 3.875 8.75V10.25ZM1.625 12.125C1.21079 12.125 0.875 12.4608 0.875 12.875C0.875 13.2892 1.21079 13.625 1.625 13.625V12.125ZM3.875 13.625C4.28921 13.625 4.625 13.2892 4.625 12.875C4.625 12.4608 4.28921 12.125 3.875 12.125V13.625ZM4.32392 15.7258C8.06068 12.9337 13.1893 12.9337 16.9261 15.7258L17.8239 14.5242C13.5547 11.3342 7.69529 11.3342 3.42608 14.5242L4.32392 15.7258ZM1.625 6.875H3.875V5.375H1.625V6.875ZM1.625 10.25H3.875V8.75H1.625V10.25ZM1.625 13.625H3.875V12.125H1.625V13.625Z" fill="black"/>
</svg>
