<svg width="24" height="24" viewBox="0 0 24 24" fill="none" xmlns="http://www.w3.org/2000/svg">
<path fill-rule="evenodd" clip-rule="evenodd" d="M16 9C16 11.2091 14.2091 13 12 13C9.79086 13 8 11.2091 8 9C8 6.79086 9.79086 5 12 5C13.0609 5 14.0783 5.42143 14.8284 6.17157C15.5786 6.92172 16 7.93913 16 9Z" stroke="black" stroke-opacity="0.7" stroke-width="1.5" stroke-linecap="round" stroke-linejoin="round"/>
<path d="M12.75 13.0002C12.75 12.586 12.4142 12.2502 12 12.2502C11.5858 12.2502 11.25 12.586 11.25 13.0002H12.75ZM11.25 19.0002C11.25 19.4144 11.5858 19.7502 12 19.7502C12.4142 19.7502 12.75 19.4144 12.75 19.0002H11.25ZM11.9205 6.66746C11.5086 6.71139 11.2103 7.08089 11.2542 7.49277C11.2982 7.90465 11.6677 8.20293 12.0795 8.15901L11.9205 6.66746ZM13.2806 8.86527C13.4425 9.24656 13.8827 9.42446 14.264 9.26262C14.6453 9.10078 14.8232 8.66049 14.6614 8.2792L13.2806 8.86527ZM11.25 13.0002V19.0002H12.75V13.0002H11.25ZM12.0795 8.15901C12.5917 8.10438 13.0794 8.39113 13.2806 8.86527L14.6614 8.2792C14.2021 7.19719 13.0893 6.54281 11.9205 6.66746L12.0795 8.15901Z" fill="black" fill-opacity="0.7"/>
</svg>
