<svg width="26" height="28" viewBox="0 0 26 28" fill="none" xmlns="http://www.w3.org/2000/svg">
<path d="M22.25 14C22.25 19.5584 18.0744 24 13 24C7.92562 24 3.75 19.5584 3.75 14C3.75 8.44161 7.92562 4 13 4C18.0744 4 22.25 8.44161 22.25 14Z" stroke="#222222"/>
<ellipse cx="12.9997" cy="20.9993" rx="0.541667" ry="0.583333" fill="#222222"/>
<path d="M13 18.666V17.6013C13 16.8049 13.3836 16.0573 14.0305 15.5928L14.6432 15.153C15.6519 14.4288 16.25 13.263 16.25 12.0213V11.416C16.25 9.62109 14.7949 8.16602 13 8.16602V8.16602C11.2051 8.16602 9.75 9.62109 9.75 11.416V11.666" stroke="#222222"/>
</svg>
