<svg width="443" height="443" viewBox="0 0 443 443" fill="none" xmlns="http://www.w3.org/2000/svg">
<circle cx="221.203" cy="221.203" r="221.203" fill="url(#paint0_radial_1407_996)"/>
<path d="M210.525 212.625C210.525 210.072 211.4 207.624 212.959 205.819C214.518 204.014 216.632 203 218.837 203C221.042 203 223.156 204.014 224.715 205.819C226.274 207.624 227.15 210.072 227.15 212.625C227.15 212.807 227.087 212.982 226.976 213.111C226.864 213.24 226.713 213.312 226.556 213.312C226.398 213.312 226.247 213.24 226.136 213.111C226.025 212.982 225.962 212.807 225.962 212.625C225.962 210.437 225.211 208.339 223.875 206.791C222.539 205.244 220.727 204.375 218.837 204.375C216.947 204.375 215.135 205.244 213.799 206.791C212.463 208.339 211.712 210.437 211.712 212.625C211.712 212.807 211.65 212.982 211.538 213.111C211.427 213.24 211.276 213.312 211.118 213.312C210.961 213.312 210.81 213.24 210.699 213.111C210.587 212.982 210.525 212.807 210.525 212.625ZM230.712 220.875C229.83 220.874 228.98 221.253 228.327 221.939C228.276 221.172 228.041 220.436 227.648 219.815C227.255 219.194 226.721 218.713 226.104 218.426C225.487 218.139 224.814 218.057 224.159 218.19C223.504 218.323 222.895 218.666 222.4 219.179V212.625C222.4 211.531 222.024 210.482 221.356 209.708C220.688 208.935 219.782 208.5 218.837 208.5C217.892 208.5 216.986 208.935 216.318 209.708C215.65 210.482 215.275 211.531 215.275 212.625V228.781L213.603 225.677C213.118 224.757 212.342 224.094 211.44 223.828C210.538 223.563 209.582 223.717 208.776 224.257C207.971 224.798 207.38 225.682 207.131 226.72C206.881 227.758 206.992 228.868 207.44 229.812L211.792 238.406C211.877 238.549 212.005 238.649 212.151 238.687C212.297 238.725 212.45 238.698 212.579 238.611C212.708 238.524 212.804 238.384 212.849 238.219C212.893 238.053 212.881 237.875 212.816 237.719L208.466 229.125C208.151 228.493 208.066 227.742 208.229 227.038C208.392 226.333 208.79 225.732 209.336 225.368C209.881 225.003 210.53 224.904 211.138 225.093C211.747 225.282 212.266 225.743 212.58 226.375L212.591 226.396L215.364 231.552C215.432 231.679 215.534 231.777 215.654 231.831C215.775 231.885 215.908 231.892 216.032 231.851C216.156 231.809 216.265 231.722 216.343 231.603C216.421 231.483 216.463 231.337 216.462 231.188V212.625C216.462 211.896 216.712 211.196 217.158 210.68C217.603 210.165 218.207 209.875 218.837 209.875C219.467 209.875 220.071 210.165 220.516 210.68C220.962 211.196 221.212 211.896 221.212 212.625V224.312C221.212 224.495 221.275 224.67 221.386 224.799C221.497 224.928 221.648 225 221.806 225C221.963 225 222.114 224.928 222.226 224.799C222.337 224.67 222.4 224.495 222.4 224.312V222.25C222.4 221.521 222.65 220.821 223.095 220.305C223.541 219.79 224.145 219.5 224.775 219.5C225.404 219.5 226.009 219.79 226.454 220.305C226.899 220.821 227.15 221.521 227.15 222.25V225.688C227.15 225.87 227.212 226.045 227.324 226.174C227.435 226.303 227.586 226.375 227.743 226.375C227.901 226.375 228.052 226.303 228.163 226.174C228.275 226.045 228.337 225.87 228.337 225.688V225C228.337 224.271 228.587 223.571 229.033 223.055C229.478 222.54 230.082 222.25 230.712 222.25C231.342 222.25 231.946 222.54 232.391 223.055C232.837 223.571 233.087 224.271 233.087 225V231.188C233.087 235.082 231.972 237.729 231.962 237.755C231.927 237.836 231.906 237.924 231.901 238.014C231.895 238.104 231.905 238.194 231.93 238.28C231.954 238.366 231.993 238.445 232.044 238.513C232.096 238.582 232.158 238.637 232.228 238.678C232.31 238.725 232.401 238.75 232.493 238.75C232.604 238.75 232.712 238.715 232.806 238.648C232.9 238.58 232.975 238.484 233.025 238.37C233.075 238.252 234.275 235.426 234.275 231.188V225C234.275 223.906 233.899 222.857 233.231 222.083C232.563 221.31 231.657 220.875 230.712 220.875Z" fill="white" stroke="white" stroke-width="2"/>
<g filter="url(#filter0_i_1407_996)">
<circle cx="221.033" cy="221.033" r="56.9497" stroke="white" stroke-width="60"/>
</g>
<defs>
<filter id="filter0_i_1407_996" x="134.083" y="134.083" width="183.899" height="183.899" filterUnits="userSpaceOnUse" color-interpolation-filters="sRGB">
<feFlood flood-opacity="0" result="BackgroundImageFix"/>
<feBlend mode="normal" in="SourceGraphic" in2="BackgroundImageFix" result="shape"/>
<feColorMatrix in="SourceAlpha" type="matrix" values="0 0 0 0 0 0 0 0 0 0 0 0 0 0 0 0 0 0 127 0" result="hardAlpha"/>
<feOffset dx="10" dy="10"/>
<feGaussianBlur stdDeviation="10"/>
<feComposite in2="hardAlpha" operator="arithmetic" k2="-1" k3="1"/>
<feColorMatrix type="matrix" values="0 0 0 0 0 0 0 0 0 0 0 0 0 0 0 0 0 0 0.25 0"/>
<feBlend mode="normal" in2="shape" result="effect1_innerShadow_1407_996"/>
</filter>
<radialGradient id="paint0_radial_1407_996" cx="0" cy="0" r="1" gradientUnits="userSpaceOnUse" gradientTransform="translate(221.203 221.203) rotate(90) scale(221.203)">
<stop stop-color="#D92424" stop-opacity="0.7"/>
<stop offset="0.0001" stop-color="#D92424" stop-opacity="0.5453"/>
<stop offset="1" stop-color="#D92424" stop-opacity="0"/>
</radialGradient>
</defs>
</svg>
