<svg width="111" height="46" viewBox="0 0 111 46" fill="none" xmlns="http://www.w3.org/2000/svg">
<path d="M55.28 28L50.688 22.912V28H49.232V16.848H50.688V22.016L55.296 16.848H57.136L52.08 22.432L57.184 28H55.28ZM66.8101 23.28C66.8101 23.5573 66.7941 23.8507 66.7621 24.16H59.7541C59.8075 25.024 60.1008 25.7013 60.6341 26.192C61.1781 26.672 61.8341 26.912 62.6021 26.912C63.2315 26.912 63.7541 26.768 64.1701 26.48C64.5968 26.1813 64.8955 25.7867 65.0661 25.296H66.6341C66.3995 26.1387 65.9301 26.8267 65.2261 27.36C64.5221 27.8827 63.6475 28.144 62.6021 28.144C61.7701 28.144 61.0235 27.9573 60.3621 27.584C59.7115 27.2107 59.1995 26.6827 58.8261 26C58.4528 25.3067 58.2661 24.5067 58.2661 23.6C58.2661 22.6933 58.4475 21.8987 58.8101 21.216C59.1728 20.5333 59.6795 20.0107 60.3301 19.648C60.9915 19.2747 61.7488 19.088 62.6021 19.088C63.4341 19.088 64.1701 19.2693 64.8101 19.632C65.4501 19.9947 65.9408 20.496 66.2821 21.136C66.6341 21.7653 66.8101 22.48 66.8101 23.28ZM65.3061 22.976C65.3061 22.4213 65.1835 21.9467 64.9381 21.552C64.6928 21.1467 64.3568 20.8427 63.9301 20.64C63.5141 20.4267 63.0501 20.32 62.5381 20.32C61.8021 20.32 61.1728 20.5547 60.6501 21.024C60.1381 21.4933 59.8448 22.144 59.7701 22.976H65.3061ZM70.188 16.16V28H68.732V16.16H70.188ZM80.4455 19.232V28H78.9895V26.704C78.7122 27.152 78.3228 27.504 77.8215 27.76C77.3308 28.0053 76.7868 28.128 76.1895 28.128C75.5068 28.128 74.8935 27.9893 74.3495 27.712C73.8055 27.424 73.3735 26.9973 73.0535 26.432C72.7442 25.8667 72.5895 25.1787 72.5895 24.368V19.232H74.0295V24.176C74.0295 25.04 74.2482 25.7067 74.6855 26.176C75.1228 26.6347 75.7202 26.864 76.4775 26.864C77.2562 26.864 77.8695 26.624 78.3175 26.144C78.7655 25.664 78.9895 24.9653 78.9895 24.048V19.232H80.4455ZM82.3599 23.584C82.3599 22.688 82.5412 21.904 82.9039 21.232C83.2665 20.5493 83.7625 20.0213 84.3919 19.648C85.0319 19.2747 85.7412 19.088 86.5199 19.088C87.2879 19.088 87.9545 19.2533 88.5199 19.584C89.0852 19.9147 89.5065 20.3307 89.7839 20.832V19.232H91.2559V28H89.7839V26.368C89.4959 26.88 89.0639 27.3067 88.4879 27.648C87.9225 27.9787 87.2612 28.144 86.5039 28.144C85.7252 28.144 85.0212 27.952 84.3919 27.568C83.7625 27.184 83.2665 26.6453 82.9039 25.952C82.5412 25.2587 82.3599 24.4693 82.3599 23.584ZM89.7839 23.6C89.7839 22.9387 89.6505 22.3627 89.3839 21.872C89.1172 21.3813 88.7545 21.008 88.2959 20.752C87.8479 20.4853 87.3519 20.352 86.8079 20.352C86.2639 20.352 85.7679 20.48 85.3199 20.736C84.8719 20.992 84.5145 21.3653 84.2479 21.856C83.9812 22.3467 83.8479 22.9227 83.8479 23.584C83.8479 24.256 83.9812 24.8427 84.2479 25.344C84.5145 25.8347 84.8719 26.2133 85.3199 26.48C85.7679 26.736 86.2639 26.864 86.8079 26.864C87.3519 26.864 87.8479 26.736 88.2959 26.48C88.7545 26.2133 89.1172 25.8347 89.3839 25.344C89.6505 24.8427 89.7839 24.2613 89.7839 23.6ZM95.1724 20.656C95.4284 20.1547 95.791 19.7653 96.2604 19.488C96.7404 19.2107 97.3217 19.072 98.0044 19.072V20.576H97.6204C95.9884 20.576 95.1724 21.4613 95.1724 23.232V28H93.7164V19.232H95.1724V20.656Z" fill="#999999"/>
<path d="M36.2774 8.64299C36.2462 8.64057 36.2199 8.625 36.1874 8.625H22.75C20.6825 8.625 19 10.2374 19 12.2188V13.4166C19 14.0779 19.5598 14.6147 20.2499 14.6147C20.94 14.6147 21.4998 14.0779 21.4998 13.4166V12.2188C21.4998 11.5587 22.0611 11.0209 22.75 11.0209H28.5737L28.1924 11.1431C27.18 11.4785 26.5 12.3925 26.5 13.4166V31.3853H22.75C22.0611 31.3853 21.4998 30.8475 21.4998 30.1875V27.7916C21.4998 27.1305 20.94 26.5938 20.2499 26.5938C19.5598 26.5938 19 27.1305 19 27.7916V30.1875C19 32.1688 20.6825 33.7812 22.75 33.7812H26.5V34.9791C26.5 36.3004 27.6211 37.375 28.9998 37.375C29.2674 37.375 29.5212 37.3379 29.7961 37.2563L37.3062 34.8569C38.3199 34.5215 38.9999 33.6075 38.9999 32.5834V11.0209C38.9999 9.62412 37.7436 8.52915 36.2774 8.64299V8.64299Z" fill="#999999"/>
<path d="M22.3836 19.7581L17.3837 14.9665C17.0262 14.6239 16.4888 14.5208 16.0212 14.7066C15.5549 14.8921 15.2501 15.3295 15.2501 15.8134V19.4071H10.2499C9.56007 19.4071 9 19.9439 9 20.605C9 21.2663 9.56007 21.803 10.2499 21.803H15.2501V25.3968C15.2501 25.8807 15.5549 26.3178 16.0212 26.5036C16.4888 26.6892 17.0262 26.5863 17.3837 26.2437L22.3836 21.4519C22.8725 20.9836 22.8725 20.2266 22.3836 19.7581Z" fill="#999999"/>
</svg>
