<svg width="19" height="20" viewBox="0 0 19 20" fill="none" xmlns="http://www.w3.org/2000/svg">
<path fill-rule="evenodd" clip-rule="evenodd" d="M12.6558 12.25H5.84404C3.8392 12.3405 2.06301 13.4537 1.25704 15.125C0.28491 16.86 2.22504 18.5 4.48141 18.5H14.0184C16.2762 18.5 18.2163 16.86 17.2428 15.125C16.4368 13.4537 14.6606 12.3405 12.6558 12.25Z" stroke="black" stroke-width="1.5" stroke-linecap="round" stroke-linejoin="round"/>
<path fill-rule="evenodd" clip-rule="evenodd" d="M13.375 4.75C13.375 6.82107 11.5282 8.5 9.25 8.5C6.97183 8.5 5.125 6.82107 5.125 4.75C5.125 2.67893 6.97183 1 9.25 1C10.344 1 11.3932 1.39509 12.1668 2.09835C12.9404 2.80161 13.375 3.75544 13.375 4.75Z" stroke="black" stroke-width="1.5" stroke-linecap="round" stroke-linejoin="round"/>
</svg>
