<?xml version="1.0" encoding="UTF-8"?>
<svg version="1.1" viewBox="0 0 1440 1644" width="1280" height="1280" xmlns="http://www.w3.org/2000/svg">
<path transform="translate(365,408)" d="m0 0 3 1-5 15-6 24-3 26v18l4 37 7 39 10 34 9 28 6 24-1 4-12-14-11-11-8-6-5-18-7-36-8-43-2-13 2 25 4 28 7 35 6 25 5 19v16l-3-4-8-17-12-18-11-16-8-12-4-14-6-29-2-25v-20l2-23 6-17 7-14 7-11 12-14 7-8 11-9z" fill="#FBFBFB"/>
<path transform="translate(1077,408)" d="m0 0 6 4 17 16 13 14 12 19 7 17 4 17 1 15v19l-1 20-6 32-4 15-5 9-13 18-12 19-6 11-6 10-2 1 2-19 11-44 8-47 3-22 1-16-13 71-8 37-3 5-11 9-11 11-4 6-3 1 2-11 8-30 10-33 8-34 4-23 3-36-1-20-3-26-6-25-2-6z" fill="#FBFBFB"/>
<path transform="translate(729,720)" d="m0 0 16 2 16 5 15 8 16 12 10 10 10 16 7 14 3 8v3h-19l-6-9-7-13-8-9v-2l-4-2-8-7-19-11-3-1 1 20 11 8 8 7 7 8 8 16 3 11v3h39l1 1v20l-4 19-4 12-8 16-10 13-14 14-14 9-17 8-14 4-12 2-2-7v-50l2-3 16-8 10-9 2-2h23l1 2-9 12-9 10-14 9-1 21 16-8 9-7 10-9 8-10 7-12 5-15 3-12h-40v-16l-3-12-7-13-10-9-18-8-1-2v-52z" fill="#FBFBFB"/>
<path transform="translate(703,720)" d="m0 0h5l1 1v56l-3 3-14 6-7 6h-2l-2 4-3 2h-22l2-5 9-13 10-9 10-6 1-2v-19l-14 7-14 10-9 9-7 10-8 15-4 14-2 8h41v19l2 9 6 11 5 6 14 9 10 4 1 3v51l-1 6-13-2-14-4-19-9-12-9-10-9-8-9-9-14-9-19 1-4h20l8 16 6 9 10 11 14 10 11 6 5 2-1-6v-14l-12-8-12-12-7-11-5-11-2-10-39-1v-27l3-15 7-16 7-13 8-10 13-13 13-9 16-8 18-5z" fill="#aaa"/>
<path transform="translate(1230,645)" d="m0 0h2l-2 9-11 26-11 19-12 16-11 12-7 6-17 12-25 15-15 8-29 13-26 16h-2l2-5 11-12 7-9 5-5h-10v-3l7-8 14-11 9-8 12-9 17-13 12-8 14-9 7-4-6 2-21 11-10 7-17 12-14 11-10 9-11 9-3 3h-2v2l-8 7-7 4-23 7h-2l2-5 9-9 9-12 10-11 8-7 9-8 14-11 9-7 15-10 18-11 15-9 19-9 40-15z" fill="#FCFCFC"/>
<path transform="translate(212,645)" d="m0 0 5 2 19 9 29 10 21 10 14 8 19 12 11 7 16 12 17 14 8 7 11 10 7 8 7 9 6 7 2 1v2l3 1 1 4-17-5-16-6-5-5-11-10-8-7-10-9-19-14-16-11-19-12-12-5 12 8 16 11 21 16 16 12 13 12 9 7 3 4v2l-11-1 1 4 4 2 9 10 7 8 5 6v2l-6-2-25-15-27-12-19-10-22-14-13-9-13-11-9-10-10-14-13-23-8-20-3-7z" fill="#FCFCFC"/>
<path transform="translate(267,501)" d="m0 0 4 4 4 13 6 21 9 21 8 14 14 22 10 15 15 22 11 17 10 19 5 14 3 17-1 4-5-5-9-12-12-17-11-16-8-11-10-14-4-5 9 15 12 19 14 22 13 18 8 10 6 11 4 7-1 4-13-11-13-10-19-13-14-9-8-5-5-6-14-25-7-16-10-28-5-21-2-15v-25l2-18 4-20z" fill="#FBFBFB"/>
<path transform="translate(1175,500)" d="m0 0 1 4 1 9 4 22 1 10v28l-5 27-8 25-8 20-12 23-8 13-13 8-14 9-20 14-13 11-7 5h-2l1-5 4-8 13-18 9-12 10-15 14-22 12-20 5-8-6 8-12 17-10 14-13 19-8 10-8 12-4 5-3-1 3-12 3-15 4-10 11-20 10-15 9-13 22-33 9-15 8-15 6-15 8-24 4-13z" fill="#FCFCFC"/>
<path transform="translate(407,445)" d="m0 0 5 1 2 17v4h-2l-1-7-1 14 1 19 5 39 6 46v28l-2 8-10 15-2 1-3-39-8-51v17l6 47v41l-3 21-4-2-5-18-5-21-15-48-1-4v-33l2-12h-3v-2h3l3-21 6-23 6-14 8-11z" fill="#FBFBFB"/>
<path transform="translate(1032,445)" d="m0 0 8 4 8 7 10 16 6 16 5 21 3 20 2 25v14l-6 23-13 41-7 31-4 4-4-28v-19l1-22 5-41v-19l-8 54-1 10-1 28h-2l-10-14-2-4-1-6v-26l3-25 4-27 5-42v-19h-3l1-16v-5z" fill="#FBFBFB"/>
<path transform="translate(1232,743)" d="m0 0h2l-2 4-8 10-18 18-20 15-16 9-23 12-22 10-36 12-21 8-9 3 2-5 7-12 3-7 9-6 15-8 30-13 19-7 16-5-21 5-24 8-21 9-16 8-16 9-11 7-15 9-9 3-11 1 5-5 13-10 10-8 11-9 16-10 21-12 15-8 20-8 21-6 35-7 26-5 17-6z" fill="#FCFCFC"/>
<path transform="translate(209,743)" d="m0 0 5 1 7 4 18 5 51 10 22 6 19 7 22 11 24 14 11 7 10 8 11 9 15 11 3 4-10-1-12-4-24-15-16-9-29-14-21-8-32-8 11 4 13 4 22 9 29 13 12 7 4 4 4 10 6 10v2l-9-3-20-8-30-9-20-9-36-18-18-11-12-10-8-7-13-13-9-12z" fill="#FCFCFC"/>
<path transform="translate(1077,639)" d="m0 0h3l-2 20-2 28-6 29-5 15-7 13-9 12-7 8-5 5-13 14-14 10-17 13-15 12-10 7-5 1-6-1 2-4 23-16 11-9 14-14 10-13-13 13-8 7-14 12-19 14-5 2 2-5 10-17 16-16 10-11 12-16 12-18 10-18 8-20 5-15 10-16 11-12 7-8z" fill="#FCFCFC"/>
<path transform="translate(364,639)" d="m0 0 6 4 13 13 11 15 6 11 12 32 12 22 16 23 8 10 11 12v2l3 1 4 5 8 7 7 11 5 8-1 3-9-6-13-10-13-11-15-14-6-5-2-2 9 11 9 10 12 11 21 15 7 4 2 4-10 1-9-6-16-13-13-10-14-10-8-6-11-12-7-8-10-12-9-14-7-19-3-12-3-20-4-44z" fill="#FCFCFC"/>
<path transform="translate(466,679)" d="m0 0 3 1 2 3 4 13 12 31 8 16 10 16 10 13 11 13 16 16v2h2l7 8 3 5 1 30 2 15 5 18 7 17 9 17 7 11 13 16 7 7 11 9 16 13 13 8 21 10 4 6 1 4v11h-3l-2-13-2-4-9-5-25-14-8-7-11-7-15-11-12-11-11-12-11-17-6-14-7-21-4-18-3-26-5-11-11-12-19-19-9-11 2 4 9 13 11 12 12 12 6 10 2 9 3 23 5 21 8 22 3 7 8 13 8 10 6 8 11 9 16 10 13 10 1 2-7-2-14-10-15-10-9-9-7-8-12-16-4-7-2-6-8-20-5-17-6-32-4-8-8-10-9-11-11-13-8-12-7-11-10-18-4-11-6-26-1-20z" fill="#FAFAFA"/>
<path transform="translate(242,822)" d="m0 0h38l38 5 20 5 25 8 17 7 10 6 9 8v2l-8-1-9-3-32-6-20-3h-4l21 5 19 4 27 7 15 5 11 7v2h-19l-34-1-26-2-21-5-25-10-12-7-12-10-14-11-8-6-6-4z" fill="#FCFCFC"/>
<path transform="translate(1162,822)" d="m0 0h39l-2 4-8 5-12 10-13 10-10 7-16 8-16 6-15 4-15 2-14 1-41 1h-15l5-5 14-7 30-8 44-10-10 1-27 4-23 5-9 3-4-1 10-10 16-8 16-6 22-7 17-4 26-3z" fill="#FCFCFC"/>
<path transform="translate(978,677)" d="m0 0h1l-1 24-3 23-4 16-6 15-8 13-6 10-12 16-13 16-11 14-5 10-7 35-6 18-10 24-8 13-11 13-10 10-12 9-19 13-5 1 4-4 19-14 10-7 9-8 12-16 6-10 5-10 9-25 6-29 2-17 3-7 7-9 12-12 9-11 10-14-14 14-7 8-18 18-4 8-2 10-2 19-5 21-7 20-8 16-7 11-9 11-12 12-19 14-6 4-8 6-10 7-21 11-5 3-4 5-1 14h-3l-1-3 1-13 5-6 6-3 10-4 17-10 13-11 10-9 10-8 11-13 10-15 12-23 4-10 5-18 2-13 1-30v-5l8-8 1-2h2l2-4 15-15 8-10 8-9 10-15 12-23 11-26 8-22z" fill="#F2F2F2"/>
<path transform="translate(272,872)" d="m0 0 10 3 16 5 20 3h82l19 2 16 3 14 5 11 4 1 2-2 1h-66l-23 2 50 1 14 1v3l-4 3 1 1 15 3 10 4v1l-27 1-26 3-8 1h-21l-17-3-19-5-20-8-16-8-14-9-12-11-5-6z" fill="#FCFCFC"/>
<path transform="translate(1169,872)" d="m0 0h3l-1 4-11 11-15 11-16 8-18 8-20 6-22 4h-21l-32-4-29-1 3-2 13-5 10-1v-2l-4-1v-4l9-1 56-1-37-3h-12l-22 1h-21l-2-2 33-11 18-3 14-1h82l18-3 17-5z" fill="#FCFCFC"/>
<path transform="translate(432,609)" d="m0 0h2v36l3 24 5 23 8 24 10 19 13 18 9 15 8 12 5 8-1 2-11-9-9-10-24-32-9-13 2 6 8 14 12 16 4 5 2 12 2 5-1 4-11-11-10-13-6-8-12-17-11-19-8-16-6-18-2-7-1-10 2-17 5-16 9-13 9-10z" fill="#FCFCFC"/>
<path transform="translate(1010,609)" d="m0 0 7 6 7 8 7 10 4 8 4 16 1 7v12l-4 15-5 13-8 17-11 18-10 14-9 12-12 14-7 8h-1l1-8 3-12 12-16 7-11 6-12v-3l-8 13-13 17-12 16-9 10-9 8-2-1 7-12 6-9 8-13 14-21 8-15 7-19 6-23 3-20 1-11z" fill="#FBFBFB"/>
<path transform="translate(367,771)" d="m0 0 10 2 21 6 19 8 15 10 13 10 16 13 10 7 11 7 8 6 8 9v3l-7-2-13-8-21-11-9-5 22 15 24 14 12 6 2 3-10-2-5-4-2-1 1 6-9-1-22-9-18-10-10-6-12-8-14-11-13-12-11-12-10-13-7-8z" fill="#FCFCFC"/>
<path transform="translate(703,720)" d="m0 0h5l1 1v56l-3 3-14 6-7 6h-2l-2 4-3 2h-22l2-5 9-13 10-9 10-6 1-2v-19l-14 7-6 4-10 3-3 4-5 3-4 1-6 4-7 8-4 6-1 3h-2l-1 6-3 5-4 13-3 18v6l3 2h-7v-27l3-15 7-16 7-13 8-10 13-13 13-9 16-8 18-5z" fill="#aaa"/>
<path transform="translate(1069,772)" d="m0 0h7l-1 4-9 10-9 12-12 13-11 9-15 11-17 11-11 6-16 8-18 7h-6v-8l5-4 11-6 14-9 13-9-5 2-26 14-13 8-5 1 2-4 6-8 8-6 9-5 14-11 16-13 20-14 12-7 20-7z" fill="#FCFCFC"/>
<path transform="translate(426,924)" d="m0 0h32l17 4 16 5 10 2-4 3-4 2-25 3-40 2-7 1 16 2h12l27-2 11-1-4 5-10 5-14 4-6 1h-34l-28-4-20-7-20-10-9-6-1-2h23l31-3z" fill="#FCFCFC"/>
<path transform="translate(995,923)" d="m0 0 22 1 40 5 25 2h19v3l-29 15-21 7-17 3-11 1h-35l-21-6-10-6-1-2 21 1 19 1h12l19-2-50-3-25-3-8-3v-2l23-6 17-5z" fill="#FCFCFC"/>
<path transform="translate(384,834)" d="m0 0 6 1 7 3 14 4 26 5 14 5 26 11 18 6 4 5 10 13v2l-11-2-30-8-15-5-1 1 18 7 21 7 21 5 2 2-4 2-3-1v2l-3 1h-13l-21-3-33-12-14-8-12-9-3-2v-2l-3-1-7-8-8-9-6-10z" fill="#FCFCFC"/>
<path transform="translate(1057,833)" d="m0 0h2l-1 5-8 13-17 17-21 14-11 5-33 11-17 2h-11l-11-4v-2l10-1 24-7 29-11h2v-2l-26 8-31 8h-3l2-4 11-14 6-4 21-7 23-10 17-5 25-5 13-4z" fill="#FCFCFC"/>
<path transform="translate(716,797)" d="m0 0 9 1 8 3 10 9 4 8 1 5v7l-3 10-6 8-8 6-6 2h-15l-10-5-8-9-3-8v-14l3-9 8-8 11-5zm0 20-5 3-3 6 2 7 6 4 6-1 6-5v-7l-5-6z" fill="#A8A8A8"/>
<path transform="translate(729,720)" d="m0 0 16 2 16 5 15 8 16 12 10 10 10 16 7 14 3 8v3h-19l-6-9-7-13-8-9v-2l-4-2-8-7-21-12-12-4-5 1-1 2-2 35-2-1v-52z" fill="#A8A8A8"/>
<path transform="translate(970,709)" d="m0 0 2 3h3l1 1-1 11-4 16-6 15-8 13-6 10-12 16-13 16-11 14-5 10-7 35-6 18-10 24-8 13-11 13-10 10-12 9-19 13-5 1 4-4 19-14 10-7 9-8 12-16 6-10 5-10 9-25 6-29 2-17 3-7 7-9 12-12 9-11 10-14-14 14-7 8-15 15v-3-2l-2-1 10-10h2l1-6 5-5 8-12 6-8 7-10 3-5 1-4v-2l5-5-1-3 3-3 5-12 1-5h2l1-7z" fill="#FCFCFC"/>
<path transform="translate(949,957)" d="m0 0h13l23 6 25 9 14 7 6 5v1l-28 2-37 4h-13l-9-3-12-5-4-2 1-4 1-5 1-1h39l-21-3-28-1v-2l24-7z" fill="#FAFAFA"/>
<path transform="translate(480,957)" d="m0 0h15l21 6 8 1v2l-9 2h-14l-32 3h42l5 2-1 4-1 2 4 1-2 2-5 1-12 6-6 2h-16l-45-5-18-1v-3l17-9 28-10z" fill="#FBFBFB"/>
<path transform="translate(465,903)" d="m0 0h24l20 1 10 6 5 6-11-1-17-2h-5l17 3 19 3 9 6 3 3v2l-23 2-19-1-21-6-17-8-16-8 4-3z" fill="#FBFBFB"/>
<path transform="translate(746,761)" d="m0 0 7 6 11 8 9 9 9 16 4 14v3h39l1 1v20l-1 6-2-4v-2l-7 1-5-2-21-1v-3l-4-1-6-7-2-12-4-6h-2l-4-6-2 1-5-5v-3h-3l-1-4-4-1v-3h-2l-2-4-1-4z" fill="#A8A8A8"/>
<path transform="translate(531,981)" d="m0 0 33 5 1 2-30 7h3l32-5 4 1-4 4-14 9-21 5-20 1-36-1-3-2 10-7 18-10 20-7z" fill="#FAFAFA"/>
<path transform="translate(907,981)" d="m0 0 10 1 21 8 21 11 8 6-4 2-35 1-23-1-18-5-8-5-9-8 3-1 9 2 31 4-13-3-21-4-1-2z" fill="#FBFBFB"/>
<path transform="translate(953,903)" d="m0 0h26l17 3 4 1v2l-14 6-17 9-14 5-17 3h-15l-18-2 2-4 8-6 14-3 20-3 4-1-17 1-11 2h-5l2-4 9-6 4-2z" fill="#FBFBFB"/>
<path transform="translate(735,739)" d="m0 0 10 3 4 2-1 19-1 1 2 14 1 3 1 5h2v3l5 1v4h3l1 3 5 3 10 10 3 6 1 11 4 2 2 3 3 1v3h16v1h-40v-16l-3-12-7-13-10-9-18-8 2-36 1-3z" fill="#FBFBFB"/>
<path transform="translate(614,856)" d="m0 0h21l8 16 6 9 10 11 14 10 11 6 5 3v5l-4 4-7 1-5-1-5-2v-2l-5-2-6-8-5-5v-2l-5-2-4-4-2-1v-2h-2l-2-4-4-3v-2h-3l-1-4-3 1-2 2-10-20z" fill="#A8A8A8"/>
<path transform="translate(626,877)" d="m0 0h3l1 4h3l6 7v2h2v2l5 2 9 9v2l4 2 4 5v2l5 2 2 2 5 2h7l5-3 2-6-2-1h2l-1-6v-14l-3-3 5-2 4 3v2l3-1 5 5 2 8 1 14v16l2 1-6 1-14-3-17-7-11-6-14-11-9-9-10-14-2-4z" fill="#FCFCFC"/>
<path transform="translate(594,988)" d="m0 0 15 2 11 3v2l-23 7 8-1 20-5 22-1v4l-9 6-8 3-16 2h-55l2-4 10-8 12-7z" fill="#FBFBFB"/>
<path transform="translate(845,988)" d="m0 0 10 1 9 4 17 12 3 3v2h-56l-15-2-11-4-4-4v-4h21l14 4 10 2h4l-17-5-6-2 1-2 15-4z" fill="#FCFCFC"/>
<path transform="translate(727,817)" d="m0 0h2l3 4 4 1 2 1 3 6h2l-1 11-4 9-9 6-4 1h-15l-10-5-5-8-1-7 1-4 2-4h3l1-5h6l2 1 1 7 4 4 6 1 6-4 1-1v-7l-1-6z" fill="#FBFBFB"/>
<path transform="translate(757,856)" d="m0 0h23l1 2-9 12-9 10-14 9-5 2v-3h-2v2l-5 1-2 4-5 2-1 31-2-1v-49l2-3 16-8 10-9z" fill="#A9A9A9"/>
<path transform="translate(978,677)" d="m0 0h1l-1 24-1 10-2 2h-3l-2-3-3 3-2 5h-2l-1 8-5 10-2 3 1 2-4 5h-2l1 5-3 3-4 7-9 13-7 10-6 8h-2l1 3-5 5-2 4-6 3-3-1-1 5h-2l-1 4-5 10-2 9-2-1 1-9-1 1-1 6h-1l-1-16 8-8 1-2h2l2-4 15-15 8-10 8-9 10-15 12-23 11-26 8-22z" fill="#B1B1B1"/>
<path transform="translate(664,755)" d="m0 0 3 1-8 6-8 8-7 10-8 15-4 14-1 11 1 5 2 4 3 3v3l13 1v1h-32l-4-2 1-14 3-15 5-12 3-7h2l1-5 8-10h2l2-4 7-4 8-4 2-3z" fill="#FCFCFC"/>
<path transform="translate(1230,645)" d="m0 0h2l-2 9-5 11-7 1-10 2-10 5h-4l-1 2-8 3-12 5-10 2-7 2-1-3h-5l1-5 23-11 40-15z" fill="#A8A8A8"/>
<path transform="translate(518,935)" d="m0 0h8l9 3 5 4v2l-9 1-14 2-4 1 14-1h18l6 4 3 3-1 3-14 3h-16l-17-3-10-3-10-1 2-4 11-7 12-5z" fill="#FCFCFC"/>
<path transform="translate(918,935)" d="m0 0 11 1 19 8 8 6v3l-12 2-16 4-6 1h-17l-15-3-2-1v-2l11-7h20l13 1-11-2-18-1 2-4 9-5z" fill="#FBFBFB"/>
<path transform="translate(802,854)" d="m0 0 2 4-1 5 2 1-1 7-4 12-3 1-1 4-2 3h-2v2h-2l-1 6-2 3-5 3v3l-3 1-1 3h-3l-4 4-17 5-4-1-2-7-2-1-1-9v-9l2-2 1 2v16l16-8 9-7 10-9 8-10 7-12z" fill="#A8A8A8"/>
<path transform="translate(967,779)" d="m0 0 2 1-2 11-10 19-7 9-6 7-10 6-16 8-4 3-2-1 10-8 10-13 1-4-9 10h-2v2l-6 5-2-1 9-13 12-13 14-13 13-10z" fill="#FAFAFA"/>
<path transform="translate(212,645)" d="m0 0 5 2 19 9 29 10 21 10 7 4v2l-6 2h-6l-4 1-5-3v-2h-8l-3-2-12-3-13-5-4-3-7-2-7-1-5-12z" fill="#A9A9A9"/>
<path transform="translate(475,780)" d="m0 0 5 3 16 13 10 9 8 7 9 11 6 10-1 2-7-6v-2l-4-2-8-8 4 7 1 3 4 2 7 8v2l-5-2-16-8-8-6-9-12-9-17-3-11z" fill="#F9F9F9"/>
<path transform="translate(1232,743)" d="m0 0h2l-2 4-8 10-12 12h-8l-2-1-21 3-18 1-4-1-2-4h-8l-1-3 35-7 26-5 17-6z" fill="#A8A8A8"/>
<path transform="translate(558,959)" d="m0 0 9 3 15 6v3l-4 4-4 1v4l15 4 3 1v2l-21-4-13-1-24-5-11-1-3-1 1-4 11-6zm16 9-14 2v2h10l10-2-2-2z" fill="#FAFAFA"/>
<path transform="translate(881,960)" d="m0 0h8l21 5 12 6 1 3-1 1-22 4-40 7-9 1 2-2 10-3 7-1-1-5-4-1-2-4h-2v-2zm-15 9-2 2 16 1 2-2-6-1z" fill="#FAFAFA"/>
<path transform="translate(209,743)" d="m0 0 5 1 7 4 18 5 41 8 4 1v3h-3v2l2 1-4 2-1 2h-9l-11-2-11-1-7-2h-6v3l-4-2-12-12-9-12z" fill="#A8A8A8"/>
<path transform="translate(486,829)" d="m0 0 6 1 12 3 16 8 9 7v2h2l3 5v4l-5-2-13-9 5 5 13 12 4 6v4l-10-3-11-5-6-5-11-15-6-8-8-8z" fill="#FAFAFA"/>
<path transform="translate(953,829)" d="m0 0h3l-2 5-9 10-9 13-7 8-16 8-8 2 3-9 12-11 7-6 1-2-17 12h-2l1-6 9-9 15-9 7-3 10-2z" fill="#FBFBFB"/>
<path transform="translate(605,969)" d="m0 0 11 1 13 5 1 2-17 5 11-1 5-1h7l15 8 1 2-2 1-20 1-23-5-9-4-6-2-10-2 2-4 10-4z" fill="#F8F8F8"/>
<path transform="translate(833,969)" d="m0 0 11 1 13 4 3 3v2l-18 5-6 3-18 4-12 1-12-1-2-3 8-5 11-4 5 2 6 1h9l-15-3v-4l13-5z" fill="#F8F8F8"/>
<path transform="translate(554,853)" d="m0 0 2 1 3 14 5 17 12 25 9 14 13 16 7 7 11 9 16 13 13 8 21 10 4 6 1 4v11h-3l-2-13-2-4-9-5-25-14-8-7-11-7-15-11-12-11-9-10-1-6h2l3 4-2-5-6-10-2-5-2-1-3-8-3-11-4-10-4-16z" fill="#ABABAB"/>
<path transform="translate(539,936)" d="m0 0h15l15 3 8 5 4 5h-10v2l12 1 17 9 3 3v2h-14l-16-5-12-6-12-10-9-7z" fill="#F6F6F6"/>
<path transform="translate(892,936)" d="m0 0h12l-1 3-24 18-12 5-9 3-6 1h-11l3-5 11-7 11-3 6-1h-11l2-4 6-5 15-4z" fill="#F9F9F9"/>
<path transform="translate(668,985)" d="m0 0 8 3 7 8 2 4v8l-5 8-5 4-8 3-9-2-7-6-4-7 1-6 4-6 3-2h6l3 2v9l-1 2 3 5 7-1 2-3v-10l-6-10z" fill="#F7F7F7"/>
<path transform="translate(879,892)" d="m0 0h3l1 5h-3l-2 4-6 8-1 2 1 2 3-1-1 6-8 10-7 8-9 9-19 14-6 4-8 6-10 7-21 11-5 3-4 5-1 14h-3l-1-3 1-13 5-6 6-3 10-4 17-10 13-11 10-9 10-8 11-13 10-15 9-17 3 1 1-5z" fill="#B3B3B3"/>
<path transform="translate(771,986)" d="m0 0h2l-2 5-3 6v10l2 4 7 1 3-3-1-10 3-5h6l5 4 3 6-1 7-7 8-8 4-9-1-8-6-5-8 2-10 4-7 5-4z" fill="#F6F6F6"/>
<path transform="translate(944,867)" d="m0 0 1 2-5 5-9 10-4 5-8 6-20 7h-3l1-5 9-4 2-2-9 1 4-10 14-7 14-5z" fill="#FBFBFB"/>
<path transform="translate(498,867)" d="m0 0 17 4 21 8 5 4 3 9-9-1-1 1 10 3 4 5-1 3-23-8-10-8-8-10-8-8z" fill="#FAFAFA"/>
<path transform="translate(514,899)" d="m0 0 10 1 18 5 6 3 6 5 2 5-4 1-5-2 1 2 5 2 8 5 6 7v2l-11-2-8-3-6-4-12-11-15-13-2-2z" fill="#FAFAFA"/>
<path transform="translate(687,765)" d="m0 0 3 1-1 3 1 8-1 11-4 4h-2l-2 4-3 2h-22l2-5 9-13 10-9z" fill="#aaa"/>
<path transform="translate(927,899)" d="m0 0 2 1-1 3-9 7-4 4h-2l-2 4-12 10-12 5-11 2 5-8 7-4 7-5-8 1 3-7 9-6 15-5z" fill="#F8F8F8"/>
<path transform="translate(242,822)" d="m0 0h38l16 2v3l-1 3-7 4-2 2-20 2-4 1-12-10-8-5z" fill="#A9A9A9"/>
<path transform="translate(365,408)" d="m0 0 3 1-5 15-3 8-1-2v-4l-5 4-1 2-4-1-2 4-3 3-3 1-1 3-2 2-5 6-5 5-2 5h-2v2h-2l1 3-4 6v2l-3 2-3 7-3 15-2 2v-12l6-17 7-14 7-11 12-14 7-8 11-9z" fill="#aaa"/>
<path transform="translate(1077,408)" d="m0 0 6 4 17 16 13 14 12 19 7 17 3 11v7h-2l-5-16-3-6v-3h-2l-2-5-2-1-4-7-5-7-2-5-5-4v-2l-4-2-5-5-3-1v-2l-4-1-3-3v3h-2l-5-17z" fill="#ABABAB"/>
<path transform="translate(1162,822)" d="m0 0h39l-2 4-8 5-10 8-8-2-16-1-6-2-2-5-1-3 7-3z" fill="#A9A9A9"/>
<path transform="translate(696,739)" d="m0 0h2v2l4 2 2 17-1 21-12 6-3-1 1-10-1-8h2l-2-5v-19z" fill="#FDFDFD"/>
<path transform="translate(487,738)" d="m0 0 6 2 12 19 10 13 11 13 16 16v2h2l7 8 3 5v8l-1 6-2-1-1-5h2l-4-7-2-4h-3l-5-6v-2l-3-1-6-8-4-3-3-1v-3h-2l-2-4h-2l-2-8-4-2-4-4-4-8-2-1-2-6h-2l-4-8z" fill="#aaa"/>
<path transform="translate(656,837)" d="m0 0 4 1 4 2v4h3l1 7 2 1 1 7 3 7v5l6 7v6l-5-3-11-11-7-11-5-11-1-10z" fill="#FCFCFC"/>
<path transform="translate(905,843)" d="m0 0 2 2-1 9-4 18-5 15-10 24-8 13-11 13-10 10-12 9-19 13-5 1 4-4 19-14 10-7 9-8 12-16 6-10 5-10 9-25 6-29z" fill="#E9E9E9"/>
<path transform="translate(1169,872)" d="m0 0h3l-1 4-11 11-15 11-6 1-2-5h-2l-4-6-1-2-3-1v-2l18-3 17-5z" fill="#ABABAB"/>
<path transform="translate(272,872)" d="m0 0 10 3 16 5 16 3 1 3-5 5-7 2-4-1-1 4-4-1-11-8-11-11-1-3z" fill="#aaa"/>
<path transform="translate(544,871)" d="m0 0 2 1 7 21 4 9 1 5 9 14 8 10 6 8 11 9 16 10 13 10 1 2-7-2-14-10-15-10-9-9-7-8-12-16-4-7-2-6-8-20-1-9z" fill="#D5D5D5"/>
<path transform="translate(1032,445)" d="m0 0 8 4 8 7 10 16 4 10-1 2-4-3v-3l-3-1-8-11-5-2-6-2-1-2-1 7h-3l1-16v-5z" fill="#A9A9A9"/>
<path transform="translate(1175,500)" d="m0 0 1 4 1 13-1 8h-3-2l-2 7-4 9-6 14-2 4-2 7-1 2h-2l-3 9-5 10-6 1 2-6 7-11 8-15 6-15 8-24 4-13z" fill="#AEAEAE"/>
<path transform="translate(407,445)" d="m0 0 5 1 2 17v4h-2l-1-7-1 2h-2l-2-4v3l-5 1-1 3-3 1-1 3-8 6-6 11-2 6-1-3 6-17 9-14z" fill="#A9A9A9"/>
<path transform="translate(466,679)" d="m0 0 3 1 2 3 4 13 12 31 3 6-1 3-3-4v-3h-2l-4-8-7-12v-2l-4-1 1 4-2 1-3-13z" fill="#ADADAD"/>
<path transform="translate(782,763)" d="m0 0 3 1 1 2h3l4 4v3l5 2 2 1 4 8 4 4-1 2 3 1 1 4-3 3h-5l-6-9-7-13-8-9z" fill="#FCFCFC"/>
<path transform="translate(1e3 691)" d="m0 0h2l-1 7-3 7-3 9-5 11 2 1-2 2-3 7-7 11h-2v3h-4l-1-4 9-14 8-16 6-16 3-5z" fill="#ACACAC"/>
<path transform="translate(443,700)" d="m0 0 2 2 6 16 9 17 13 18v3l-9-8-6-7-4-5v-2l-2-1-1-7-5-12-4-10z" fill="#ABABAB"/>
<path transform="translate(828,955)" d="m0 0m-1 1m-1 1m-1 1m-1 1m-1 1m-1 1m-1 1m-1 1m-2 1h2l-2 4-5 4-10 6-17 9-5 3-4 5-1 14h-3l-1-3 1-13 5-6 6-3 10-4 17-10z" fill="#A8A8A8"/>
<path transform="translate(280,541)" d="m0 0 3 3 9 20 9 15 7 11-1 2-7-6v-2l-3-1-5-9-2-5-3-7-2-6-5-13z" fill="#ADADAD"/>
<path transform="translate(869,930)" d="m0 0 4 1-7 8-8 8-12 9-19 13-5 1 4-4 19-14 10-7 9-8z" fill="#B5B5B5"/>
<path transform="translate(905,843)" d="m0 0 2 2-1 9-4 18-3 10h-3l-1-3 5-21 3-13z" fill="#E6E6E6"/>
<path transform="translate(1160,547)" d="m0 0 1 3-3 8-4 10h-2l-3 9-5 10-6 1 2-6 7-11 8-15 4-8z" fill="#A9A9A9"/>
<path transform="translate(771,986)" d="m0 0h2l-2 5-3 6-2 11h-2l-1-2-5 2 2-10 4-7 5-4z" fill="#A8A8A8"/>
<path transform="translate(581,942)" d="m0 0 5 1 11 8 15 10 10 8-2 1-6-3-13-9-15-10z" fill="#ABABAB"/>
<path transform="translate(810,979)" d="m0 0 6 2v2l-4 1v2l-4 1-5 1 1 2-10 1-2-3 8-5z" fill="#B0B0B0"/>
<path transform="translate(544,871)" d="m0 0 2 1 8 24-5-1-6-17z" fill="#CECECE"/>
<path transform="translate(1010,609)" d="m0 0 3 3 2 3-3 21-1 9h-1z" fill="#A8A8A8"/>
<path transform="translate(879,892)" d="m0 0h3l1 5h-3l-2 4-6 8-4 2 2-6 4-8 3 1 1-5z" fill="#ADADAD"/>
<path transform="translate(776,989)" d="m0 0 4 1-3 5-1 14h-3l-1-3 1-13z" fill="#B7B7B7"/>
<path transform="translate(554,853)" d="m0 0 2 1 3 14 4 13-1 4-4-7-5-20z" fill="#AFAFAF"/>
<path transform="translate(807,985)" d="m0 0h6l5 4v2l-12 1-7-1 4-4z" fill="#FDFDFD"/>
<path transform="translate(905,843)" d="m0 0 2 2-1 9-2 7h-4l2-14z" fill="#E1E1E1"/>
<path transform="translate(846,953)" d="m0 0v3l-19 13-5 1 4-4 16-12z" fill="#BDBDBD"/>
<path transform="translate(1097,931)" d="m0 0h4v3l-9 5-4-1-1-5z" fill="#AEAEAE"/>
<path transform="translate(565,924)" d="m0 0h5l10 14 3 4-4-1-10-11z" fill="#CBCBCB"/>
<path transform="translate(668,985)" d="m0 0 5 2 4 7 3 11h-3l-4-11-5-7z" fill="#A8A8A8"/>
<path transform="translate(432,609)" d="m0 0h2l-1 23h-1l-2-12-1-7v-2z" fill="#A9A9A9"/>
<path transform="translate(424,981)" d="m0 0 11 1-2 2-6 1h-13v-3z" fill="#AFAFAF"/>
<path transform="translate(466,681)" d="m0 0 2 1 2 7-1 6-2 6-2-3z" fill="#FBFBFB"/>
<path transform="translate(666,991)" d="m0 0 4 2 1 4v11h-3z" fill="#C7C7C7"/>
<path transform="translate(639,985)" d="m0 0h7l6 4-2 2h-7l1-2h-7z" fill="#A9A9A9"/>
<path transform="translate(947,856)" d="m0 0h3l-2 4-4 3-8 1 5-5z" fill="#D6D6D6"/>
<path transform="translate(879,917)" d="m0 0 2 4-7 9-4-1z" fill="#FBFBFB"/>
<path transform="translate(769,987)" d="m0 0v3l-6 9-3 6h-1l1-7 4-7z" fill="#FDFDFD"/>
<path transform="translate(888,865)" d="m0 0 1 3-3 9-3 5-2 2 2-10 2-7z" fill="#B7B7B7"/>
<path transform="translate(895,880)" d="m0 0 1 2h2l-1 5-3 7-3-1 3-11z" fill="#C9C9C9"/>
<path transform="translate(863,982)" d="m0 0h7v2l-13 3h-6l2-2z" fill="#A8A8A8"/>
<path transform="translate(844,961)" d="m0 0h7l1 5h-11z" fill="#CDCDCD"/>
<path transform="translate(869,930)" d="m0 0 4 1-7 8-5 4 1-4z" fill="#D5D5D5"/>
<path transform="translate(629,980)" d="m0 0h7l4 3-2 2h-5l2-1v-2l-7 1-4-1v-1z" fill="#aaa"/>
<path transform="translate(496,857)" d="m0 0 5 1 7 5-3 1-8-3-2-3z" fill="#ddd"/>
<path transform="translate(466,679)" d="m0 0 3 1 2 3 3 11v4h-2l-3-13-2-1z" fill="#C1C1C1"/>
<path transform="translate(341,931)" d="m0 0h7l4 2-2 4-4-1z" fill="#B7B7B7"/>
<path transform="translate(575,981)" d="m0 0 8 1 9 3v2l-17-3z" fill="#ACACAC"/>
<path transform="translate(775,997)" d="m0 0h1v12h-3l-1-8z" fill="#E6E6E6"/>
<path transform="translate(442,916)" d="m0 0h9l5 2v1h-14z" fill="#DEDEDE"/>
<path transform="translate(558,914)" d="m0 0 5 1 6 9-5-1-6-8z" fill="#EAEAEA"/>
<path transform="translate(356,527)" d="m0 0 2 2 1 6v11h-1l-3-15z" fill="#AFAFAF"/>
<path transform="translate(623,973)" d="m0 0 6 2 1 2-6 2h-5l-1-2 5-2z" fill="#aaa"/>
<path transform="translate(541,886)" d="m0 0 2 1 1 5-12-1 1-2 7-2z" fill="#C7C7C7"/>
<path transform="translate(543,862)" d="m0 0h1l1 9-3 3-2-7 1-4z" fill="#FDFDFD"/>
<path transform="translate(901,886)" d="m0 0 9 3 1 2-12 1z" fill="#CDCDCD"/>
<path transform="translate(540,852)" d="m0 0h2l1 11h-2l-1 4-1-2v-8l1-4z" fill="#aaa"/>
<path transform="translate(746,892)" d="m0 0 2 2v11h-2l-1-2v-9z" fill="#BFBFBF"/>
<path transform="translate(280,541)" d="m0 0 3 3 6 15h-2l-5-10z" fill="#B7B7B7"/>
<path transform="translate(655,994)" d="m0 0h6l3 2-1 4v-2l-11-1z" fill="#A8A8A8"/>
<path transform="translate(834,960)" d="m0 0 2 1-5 5-7 4-2-1z" fill="#AFAFAF"/>
<path transform="translate(1015,982)" d="m0 0h13l2 3h-12z" fill="#A8A8A8"/>
<path transform="translate(562,885)" d="m0 0h2l4 9-1 3-3-2z" fill="#A8A8A8"/>
<path transform="translate(898,836)" d="m0 0h1v11l-1 7h-1l-1-11z" fill="#BCBCBC"/>
<path transform="translate(816,975)" d="m0 0h3v2h5l1 3-9-1z" fill="#A8A8A8"/>
<path transform="translate(897,872)" d="m0 0 3 3-1 7h-3l-1-3z" fill="#FDFDFD"/>
<path transform="translate(634,795)" d="m0 0 1 3-4 14h-1l1-12z" fill="#B1B1B1"/>
<path transform="translate(435,616)" d="m0 0 2 1v10h-1z" fill="#A8A8A8"/>
<path transform="translate(468,671)" d="m0 0 3 3-3 1z" fill="#A8A8A8"/>
<path transform="translate(1030,487)" d="m0 0 2 1v3h-2z" fill="#A8A8A8"/>
<path transform="translate(473,681)" d="m0 0 2 1v2l-3-1z" fill="#A8A8A8"/>
<path transform="translate(924,979)" d="m0 0h3v2l-3-1z" fill="#A8A8A8"/>
<path transform="translate(362,531)" d="m0 0 2 1-3 2z" fill="#A8A8A8"/>
<path transform="translate(302,520)" d="m0 0h2l-1 3z" fill="#A8A8A8"/>
<path transform="translate(978,673)" d="m0 0 3 1h-3z" fill="#A8A8A8"/>
<path transform="translate(975,672)" d="m0 0h2v2h-2z" fill="#A8A8A8"/>
<path transform="translate(1081,527)" d="m0 0 1 2-2-1z" fill="#A8A8A8"/>
<path transform="translate(1031,484)" d="m0 0" fill="#A8A8A8"/>
<path transform="translate(756 1e3)" d="m0 0" fill="#A8A8A8"/>
<path transform="translate(971,681)" d="m0 0 2 1z" fill="#A8A8A8"/>
<path transform="translate(821,970)" d="m0 0" fill="#A8A8A8"/>
<path transform="translate(622,970)" d="m0 0" fill="#A8A8A8"/>
<path transform="translate(895,902)" d="m0 0" fill="#A8A8A8"/>
<path transform="translate(509,889)" d="m0 0" fill="#A8A8A8"/>
<path transform="translate(538,875)" d="m0 0" fill="#FDFDFD"/>
<path transform="translate(534,859)" d="m0 0" fill="#FDFDFD"/>
<path transform="translate(529,835)" d="m0 0" fill="#A8A8A8"/>
<path transform="translate(913,834)" d="m0 0" fill="#FDFDFD"/>
<path transform="translate(487,825)" d="m0 0" fill="#A8A8A8"/>
<path transform="translate(957,817)" d="m0 0" fill="#A8A8A8"/>
<path transform="translate(380,797)" d="m0 0" fill="#A8A8A8"/>
<path transform="translate(947,790)" d="m0 0" fill="#FDFDFD"/>
<path transform="translate(948,789)" d="m0 0" fill="#FDFDFD"/>
<path transform="translate(474,779)" d="m0 0" fill="#A8A8A8"/>
<path transform="translate(463,674)" d="m0 0" fill="#A8A8A8"/>
<path transform="translate(462,673)" d="m0 0" fill="#A8A8A8"/>
<path transform="translate(398,668)" d="m0 0" fill="#A8A8A8"/>
<path transform="translate(390,658)" d="m0 0" fill="#FDFDFD"/>
<path transform="translate(426,608)" d="m0 0" fill="#A8A8A8"/>
<path transform="translate(427,607)" d="m0 0" fill="#A8A8A8"/>
<path transform="translate(1082,529)" d="m0 0" fill="#A8A8A8"/>
<path transform="translate(303,517)" d="m0 0" fill="#A8A8A8"/>
<path transform="translate(1086,501)" d="m0 0" fill="#A8A8A8"/>
<path transform="translate(1085,499)" d="m0 0" fill="#A8A8A8"/>
</svg>
