<svg width="15" height="16" viewBox="0 0 15 16" fill="none" xmlns="http://www.w3.org/2000/svg">
<path d="M13.8693 6.196L14.5517 6.50731L14.5517 6.50731L13.8693 6.196ZM13.4315 4.11053L12.9206 4.65962L12.9206 4.65962L13.4315 4.11053ZM9.89527 5.455L10.6453 5.45885L10.6453 5.45502L9.89527 5.455ZM10.4924 6.8022L9.98152 7.3513L9.98152 7.3513L10.4924 6.8022ZM12.6971 7.364C12.6971 6.94979 12.3613 6.614 11.9471 6.614C11.5329 6.614 11.1971 6.94979 11.1971 7.364H12.6971ZM11.9471 11.182L11.197 11.182L11.1972 11.1952L11.9471 11.182ZM9.91395 14.5155L9.55778 13.8555L9.55778 13.8555L9.91395 14.5155ZM5.76968 14.5155L6.12585 13.8555L6.12585 13.8555L5.76968 14.5155ZM3.73652 11.182L4.48652 11.1952V11.182H3.73652ZM4.48652 7.364C4.48652 6.94979 4.15074 6.614 3.73652 6.614C3.32231 6.614 2.98652 6.94979 2.98652 7.364H4.48652ZM3.7338 8.11399C4.14801 8.1155 4.48501 7.78093 4.48652 7.36672C4.48802 6.95251 4.15346 6.61551 3.73925 6.614L3.7338 8.11399ZM1.79703 6.61416L2.3079 6.06506L2.3079 6.06506L1.79703 6.61416ZM1.00002 4.818L1.75002 4.82121V4.818H1.00002ZM1.00002 2L0.491311 1.4489C0.3375 1.59088 0.250021 1.79068 0.250021 2H1.00002ZM2.59206 1.5511C2.89643 1.27015 2.91541 0.795656 2.63446 0.49129C2.3535 0.186925 1.87901 0.167945 1.57464 0.448898L2.59206 1.5511ZM3.73169 6.61401C3.31748 6.61669 2.98387 6.95463 2.98654 7.36884C2.98921 7.78304 3.32716 8.11665 3.74136 8.11398L3.73169 6.61401ZM5.65379 6.60872L5.13725 6.06495L5.13725 6.06495L5.65379 6.60872ZM6.41669 4.818H5.66669C5.66669 4.82387 5.66676 4.82975 5.6669 4.83562L6.41669 4.818ZM6.41669 2H7.16669C7.16669 1.79068 7.07921 1.59088 6.9254 1.4489L6.41669 2ZM5.84207 0.448897C5.5377 0.167945 5.06321 0.186924 4.78225 0.49129C4.5013 0.795655 4.52028 1.27015 4.82465 1.5511L5.84207 0.448897ZM11.9417 8.11398C13.0489 8.12201 14.0931 7.51234 14.5517 6.50731L13.187 5.88469C12.9951 6.30533 12.5211 6.61814 11.9525 6.61402L11.9417 8.11398ZM14.5517 6.50731C15.0161 5.48926 14.7596 4.32183 13.9423 3.56143L12.9206 4.65962C13.2836 4.99739 13.373 5.47705 13.187 5.88469L14.5517 6.50731ZM13.9423 3.56143C13.1357 2.81091 11.9413 2.59647 10.9092 2.98888L11.4423 4.39096C11.9597 4.19422 12.5469 4.31197 12.9206 4.65962L13.9423 3.56143ZM10.9092 2.98888C9.8709 3.38365 9.14531 4.34166 9.14527 5.45497L10.6453 5.45502C10.6453 5.02138 10.931 4.58535 11.4423 4.39096L10.9092 2.98888ZM9.14528 5.45115C9.14156 6.175 9.45046 6.85721 9.98152 7.3513L11.0033 6.2531C10.7645 6.031 10.6438 5.74386 10.6453 5.45885L9.14528 5.45115ZM9.98152 7.3513C10.5105 7.8435 11.2179 8.11188 11.9449 8.114L11.9493 6.614C11.5834 6.61294 11.244 6.4771 11.0033 6.2531L9.98152 7.3513ZM11.1971 7.364V11.182H12.6971V7.364H11.1971ZM11.1972 11.1952C11.216 12.262 10.6104 13.2874 9.55778 13.8555L10.2701 15.1755C11.7776 14.362 12.7264 12.839 12.697 11.1688L11.1972 11.1952ZM9.55778 13.8555C8.5 14.4263 7.18363 14.4263 6.12585 13.8555L5.41351 15.1755C6.91589 15.9862 8.76775 15.9862 10.2701 15.1755L9.55778 13.8555ZM6.12585 13.8555C5.07319 13.2874 4.46763 12.262 4.48641 11.1952L2.98664 11.1688C2.95725 12.839 3.906 14.362 5.41351 15.1755L6.12585 13.8555ZM4.48652 11.182V7.364H2.98652V11.182H4.48652ZM3.73925 6.614C3.19101 6.61201 2.67711 6.40856 2.3079 6.06506L1.28616 7.16325C1.94334 7.77469 2.82475 8.11069 3.7338 8.11399L3.73925 6.614ZM2.3079 6.06506C1.94072 5.72344 1.74807 5.27461 1.75001 4.82121L0.250028 4.81479C0.246211 5.70656 0.626948 6.54994 1.28616 7.16325L2.3079 6.06506ZM1.75002 4.818V2H0.250021V4.818H1.75002ZM1.50873 2.5511L2.59206 1.5511L1.57464 0.448898L0.491311 1.4489L1.50873 2.5511ZM3.74136 8.11398C4.6463 8.10815 5.52235 7.76803 6.17034 7.15248L5.13725 6.06495C4.77769 6.40651 4.27247 6.61053 3.73169 6.61401L3.74136 8.11398ZM6.17034 7.15248C6.82043 6.53493 7.18737 5.68885 7.16648 4.80037L5.6669 4.83562C5.67737 5.28137 5.49469 5.7254 5.13725 6.06495L6.17034 7.15248ZM7.16669 4.818V2H5.66669V4.818H7.16669ZM6.9254 1.4489L5.84207 0.448897L4.82465 1.5511L5.90798 2.5511L6.9254 1.4489Z" fill="black"/>
</svg>
