<svg width="18" height="18" viewBox="0 0 18 18" fill="none" xmlns="http://www.w3.org/2000/svg">
<path d="M0 8C0 4.229 -1.19209e-07 2.343 1.172 1.172C2.343 -1.19209e-07 4.229 0 8 0H10C13.771 0 15.657 -1.19209e-07 16.828 1.172C18 2.343 18 4.229 18 8V10C18 13.771 18 15.657 16.828 16.828C15.657 18 13.771 18 10 18H8C4.229 18 2.343 18 1.172 16.828C-1.19209e-07 15.657 0 13.771 0 10V8Z" fill="black" fill-opacity="0.25"/>
<path d="M5.5 10.5C6.60457 10.5 7.5 9.60457 7.5 8.5C7.5 7.39543 6.60457 6.5 5.5 6.5C4.39543 6.5 3.5 7.39543 3.5 8.5C3.5 9.60457 4.39543 10.5 5.5 10.5Z" stroke="black"/>
<path d="M7.5 8.5H12.5M12.5 8.5H14.35C14.3898 8.5 14.4279 8.5158 14.4561 8.54393C14.4842 8.57206 14.5 8.61022 14.5 8.65V10.5M12.5 8.5V10.5" stroke="black" stroke-linecap="round"/>
</svg>
