<svg width="13" height="16" viewBox="0 0 13 16" fill="none" xmlns="http://www.w3.org/2000/svg">
<path fill-rule="evenodd" clip-rule="evenodd" d="M9.25 3.75C9.25 5.26878 8.01878 6.5 6.5 6.5C4.98122 6.5 3.75 5.26878 3.75 3.75C3.75 2.23122 4.98122 1 6.5 1C8.01878 1 9.25 2.23122 9.25 3.75Z" stroke="black" stroke-width="1.5" stroke-linecap="round" stroke-linejoin="round"/>
<path d="M1.74967 11.7341C1.73738 11.3201 1.39179 10.9944 0.977754 11.0067C0.563723 11.019 0.238044 11.3646 0.25033 11.7786L1.74967 11.7341ZM4.385 14.9504V14.2004C4.3779 14.2004 4.37081 14.2005 4.36372 14.2007L4.385 14.9504ZM8.615 14.9504L8.63628 14.2007C8.62919 14.2005 8.6221 14.2004 8.615 14.2004L8.615 14.9504ZM12.7497 11.7786C12.762 11.3646 12.4363 11.019 12.0222 11.0067C11.6082 10.9944 11.2626 11.3201 11.2503 11.7341L12.7497 11.7786ZM11.2503 11.6336C11.2626 12.0476 11.6082 12.3733 12.0222 12.361C12.4363 12.3488 12.762 12.0032 12.7497 11.5891L11.2503 11.6336ZM8.615 8.41737V9.16737C8.6221 9.16737 8.62919 9.16727 8.63628 9.16707L8.615 8.41737ZM4.385 8.41737L4.36372 9.16707C4.37081 9.16727 4.3779 9.16737 4.385 9.16737L4.385 8.41737ZM0.25033 11.5891C0.238044 12.0032 0.563723 12.3488 0.977754 12.361C1.39179 12.3733 1.73738 12.0476 1.74967 11.6336L0.25033 11.5891ZM0.25033 11.7786C0.3165 14.0085 2.17632 15.7634 4.40628 15.7001L4.36372 14.2007C2.9611 14.2405 1.79129 13.1367 1.74967 11.7341L0.25033 11.7786ZM4.385 15.7004H8.615V14.2004H4.385V15.7004ZM8.59372 15.7001C10.8237 15.7634 12.6835 14.0085 12.7497 11.7786L11.2503 11.7341C11.2087 13.1367 10.0389 14.2405 8.63628 14.2007L8.59372 15.7001ZM12.7497 11.5891C12.6835 9.35924 10.8237 7.60436 8.59372 7.66767L8.63628 9.16707C10.0389 9.12725 11.2087 10.231 11.2503 11.6336L12.7497 11.5891ZM8.615 7.66737H4.385V9.16737H8.615V7.66737ZM4.40628 7.66767C2.17632 7.60436 0.3165 9.35924 0.25033 11.5891L1.74967 11.6336C1.79129 10.231 2.9611 9.12725 4.36372 9.16707L4.40628 7.66767Z" fill="black"/>
</svg>
