<svg width="20" height="20" viewBox="0 0 20 20" fill="none" xmlns="http://www.w3.org/2000/svg">
<path fill-rule="evenodd" clip-rule="evenodd" d="M10 11.5C11.0609 11.5 12.0783 11.0786 12.8284 10.3284C13.5786 9.57828 14 8.56087 14 7.5C14 6.43913 13.5786 5.42172 12.8284 4.67157C12.0783 3.92143 11.0609 3.5 10 3.5C8.93913 3.5 7.92172 3.92143 7.17157 4.67157C6.42143 5.42172 6 6.43913 6 7.5C6 8.56087 6.42143 9.57828 7.17157 10.3284C7.92172 11.0786 8.93913 11.5 10 11.5ZM10 10.5C10.394 10.5 10.7841 10.4224 11.1481 10.2716C11.512 10.1209 11.8427 9.8999 12.1213 9.62132C12.3999 9.34274 12.6209 9.01203 12.7716 8.64805C12.9224 8.28407 13 7.89397 13 7.5C13 7.10603 12.9224 6.71593 12.7716 6.35195C12.6209 5.98797 12.3999 5.65726 12.1213 5.37868C11.8427 5.1001 11.512 4.87913 11.1481 4.72836C10.7841 4.5776 10.394 4.5 10 4.5C9.20435 4.5 8.44129 4.81607 7.87868 5.37868C7.31607 5.94129 7 6.70435 7 7.5C7 8.29565 7.31607 9.05871 7.87868 9.62132C8.44129 10.1839 9.20435 10.5 10 10.5Z" fill="black"/>
<path fill-rule="evenodd" clip-rule="evenodd" d="M20 10C20 15.523 15.523 20 10 20C4.477 20 0 15.523 0 10C0 4.477 4.477 0 10 0C15.523 0 20 4.477 20 10ZM14.815 17.605C13.3757 18.5192 11.7051 19.0032 10 19C8.25417 19.0032 6.54553 18.4957 5.0845 17.54C4.9645 17.39 4.84283 17.235 4.7195 17.075C4.57645 16.8876 4.49929 16.6582 4.5 16.4225C4.5 15.884 4.887 15.4325 5.4045 15.357C8.827 14.857 11.1835 14.9 14.6105 15.3745C14.8586 15.4108 15.0851 15.5354 15.2486 15.7255C15.412 15.9156 15.5013 16.1583 15.5 16.409C15.5 16.649 15.4175 16.882 15.2685 17.064C15.1148 17.251 14.9637 17.4313 14.815 17.605ZM16.4925 16.233C16.4125 15.297 15.702 14.516 14.7475 14.384C11.2395 13.8985 8.7875 13.852 5.26 14.3675C4.3 14.5075 3.5925 15.2955 3.5085 16.234C1.89616 14.5595 0.996822 12.3245 1 10C1 5.0295 5.0295 1 10 1C14.9705 1 19 5.0295 19 10C19.0032 12.3241 18.1042 14.5586 16.4925 16.233Z" fill="black"/>
</svg>
