<svg width="35" height="35" viewBox="0 0 35 35" fill="none" xmlns="http://www.w3.org/2000/svg">
<path fill-rule="evenodd" clip-rule="evenodd" d="M15.9545 33.128C15.145 33.128 14.4544 32.542 14.3226 31.7432C14.2012 31.097 13.736 30.569 13.1102 30.3673C12.6003 30.1922 12.1017 29.9857 11.6173 29.7489C11.041 29.4541 10.3496 29.4982 9.81535 29.8637C9.16881 30.3287 8.28065 30.2567 7.71743 29.6937L5.52676 27.5028C4.9372 26.9131 4.8606 25.9835 5.34568 25.3052C5.71979 24.7586 5.77367 24.0538 5.48701 23.4567C5.29814 23.0418 5.13154 22.6172 4.98793 22.1845C4.78226 21.5028 4.21453 20.992 3.51497 20.8594C2.67135 20.7246 2.04857 19.9999 2.04201 19.1455V16.4047C2.03752 15.4199 2.74876 14.5775 3.72035 14.417C4.45741 14.2768 5.07287 13.7719 5.35451 13.0764C5.43843 12.8806 5.52676 12.6862 5.61951 12.4933C5.9941 11.7721 5.94235 10.9034 5.48481 10.2317C4.9126 9.43639 5.00046 8.34362 5.69239 7.64993L7.30226 6.03988C8.09627 5.24551 9.34853 5.1427 10.2614 5.79694L10.3122 5.83227C10.9939 6.29113 11.8613 6.37423 12.6177 6.05313C13.4269 5.76185 14.0233 5.06642 14.1878 4.22223L14.2099 4.14713C14.3918 3.02953 15.3568 2.20846 16.4889 2.20801H18.4323C19.595 2.20748 20.5873 3.04853 20.7775 4.19572L20.8128 4.35032C20.9689 5.15904 21.5344 5.82833 22.3057 6.11718C23.0489 6.43625 23.9038 6.35292 24.5714 5.89632L24.6818 5.81681C25.6185 5.14174 26.9063 5.24557 27.7227 6.06197L29.2045 7.54613C29.9471 8.29298 30.0405 9.46742 29.4253 10.3223C28.9434 11.0368 28.8819 11.955 29.2641 12.7274L29.3591 12.9483C29.6687 13.7024 30.3383 14.2491 31.139 14.4015C32.1855 14.5721 32.9552 15.4746 32.9587 16.535V18.9932C32.9584 19.9282 32.2821 20.7259 31.3599 20.8793C30.6013 21.0247 29.9834 21.5741 29.75 22.3104C29.6469 22.6049 29.5321 22.8994 29.4055 23.1939C29.1108 23.8409 29.1762 24.5949 29.5777 25.1816C30.1076 25.9188 30.0254 26.9314 29.3834 27.5734L27.3274 29.6318C26.7395 30.2198 25.8123 30.2955 25.1368 29.8107C24.5729 29.4254 23.8423 29.383 23.2376 29.7003C22.8067 29.9138 22.3644 30.1033 21.9126 30.2679C21.281 30.4858 20.8154 31.0266 20.6936 31.6836C20.5648 32.5102 19.8561 33.1217 19.0197 33.128H15.9545Z" stroke="black" stroke-width="3" stroke-linecap="round" stroke-linejoin="round"/>
<path fill-rule="evenodd" clip-rule="evenodd" d="M22.6527 17.6682C22.6527 20.5139 20.3461 22.8208 17.5007 22.8208C14.6553 22.8208 12.3486 20.5139 12.3486 17.6682C12.3486 14.8225 14.6553 12.5156 17.5007 12.5156C20.3461 12.5156 22.6527 14.8225 22.6527 17.6682Z" stroke="black" stroke-width="3" stroke-linecap="round" stroke-linejoin="round"/>
</svg>
