<svg width="18" height="18" viewBox="0 0 18 18" fill="none" xmlns="http://www.w3.org/2000/svg">
<path d="M7.20524 3.81894C7.92629 1.93965 8.28682 1 8.90678 1C9.52675 1 9.88728 1.93965 10.6083 3.81894L10.6419 3.90645C11.0493 4.96815 11.2529 5.49901 11.6681 5.82167C12.0832 6.14433 12.6281 6.19535 13.7179 6.29739L13.915 6.31583C15.6986 6.48284 16.5904 6.56634 16.7813 7.15953C16.9721 7.75272 16.3098 8.38268 14.9852 9.64259L14.5431 10.0631C13.8725 10.7009 13.5373 11.0198 13.381 11.4377C13.3518 11.5157 13.3276 11.5956 13.3085 11.6768C13.2057 12.1126 13.3039 12.5752 13.5003 13.5004L13.5614 13.7884C13.9223 15.4888 14.1027 16.339 13.7877 16.7057C13.6699 16.8428 13.5169 16.9414 13.347 16.9899C12.8921 17.1197 12.2463 16.5695 10.9548 15.4693C10.1067 14.7468 9.68269 14.3856 9.19585 14.3043C9.00435 14.2724 8.80921 14.2724 8.61772 14.3043C8.13087 14.3856 7.70684 14.7468 6.85876 15.4693C5.56722 16.5695 4.92145 17.1197 4.4666 16.9899C4.29663 16.9414 4.14363 16.8428 4.02591 16.7057C3.71087 16.339 3.89131 15.4888 4.25217 13.7884L4.31329 13.5004C4.50965 12.5752 4.60783 12.1126 4.50511 11.6768C4.48595 11.5956 4.46172 11.5157 4.43257 11.4377C4.2763 11.0198 3.94103 10.7009 3.27048 10.0631L2.82839 9.64259C1.50377 8.38268 0.841455 7.75272 1.03229 7.15953C1.22312 6.56634 2.11495 6.48284 3.89861 6.31583L4.09564 6.29739C5.18548 6.19535 5.7304 6.14433 6.14551 5.82167C6.56062 5.49901 6.7643 4.96815 7.17166 3.90645L7.20524 3.81894Z" stroke="#222222"/>
</svg>
